<?xml version="1.0" encoding="utf-8"?>
<!-- Generator: Adobe Illustrator 24.1.0, SVG Export Plug-In . SVG Version: 6.00 Build 0)  -->
<svg version="1.1" id="Layer_1" xmlns="http://www.w3.org/2000/svg" xmlns:xlink="http://www.w3.org/1999/xlink" x="0px" y="0px"
	 viewBox="0 0 130 90" style="enable-background:new 0 0 130 90;" xml:space="preserve">
<style type="text/css">
	.st0{fill:#FFFFFF;}
</style>
<g>
	<g>
		<g>
			<path class="st0" d="M17.07,19.37h-1.55V5.62h1.55V19.37z M29.77,15.64v0.04c0,2.36-1.96,3.89-4.69,3.89
				c-2.18,0-3.97-0.73-5.62-2.2l0.96-1.14c1.43,1.3,2.81,1.94,4.71,1.94c1.85,0,3.06-0.98,3.06-2.34V15.8c0-1.28-0.69-2-3.58-2.61
				C21.46,12.49,20,11.47,20,9.21V9.18c0-2.16,1.91-3.75,4.52-3.75c2,0,3.44,0.57,4.83,1.69l-0.9,1.2
				c-1.28-1.04-2.55-1.49-3.97-1.49c-1.79,0-2.93,0.98-2.93,2.22v0.04c0,1.3,0.71,2.02,3.73,2.67
				C28.35,12.42,29.77,13.54,29.77,15.64z M43.59,5.38c-4.18,0-7.03,3.32-7.03,7.11v0.04c0,3.79,2.81,7.07,6.99,7.07
				c4.18,0,7.03-3.32,7.03-7.11v-0.04C50.58,8.66,47.77,5.38,43.59,5.38z M48.97,12.53c0,3.12-2.24,5.64-5.38,5.64
				c-3.14,0-5.42-2.55-5.42-5.68v-0.04c0-3.12,2.24-5.64,5.38-5.64c3.14,0,5.42,2.55,5.42,5.68V12.53z M32.33,5.62h1.55v13.75h-1.55
				V5.62z M6.12,19.47L0.21,5.62h1.73l0.85,2.05l4.05,9.8l0.39,0.94l-0.15-1.51l4.67-11.27h1.67L7.5,19.47H6.12z M63.24,5.62h1.51
				v13.75h-1.24L53.77,7l0.86,2v10.36h-1.51V5.62h1.45l9.3,11.83l-0.64-1.69V5.62z"/>
			<path class="st0" d="M106.71,22.28v-1.46h1.46v1.46H106.71z M109.62,22.28v-1.46h1.46v1.46H109.62z M79.64,4.18h-1.46V2.72h1.46
				V4.18z M115.25,14.36c0.55,0.39,1.19,0.69,1.92,0.87c0.73,0.19,1.5,0.28,2.31,0.28h0.38l0.49-1.03v1.45
				c0,0.76-0.22,1.31-0.66,1.64c-0.44,0.33-1.05,0.49-1.84,0.49c-0.45,0-0.85-0.04-1.21-0.13c-0.36-0.08-0.77-0.23-1.23-0.44
				l-0.45,1.4c0.56,0.21,1.05,0.36,1.48,0.46c0.43,0.1,0.86,0.15,1.3,0.15c1.42,0,2.45-0.34,3.09-1.01
				c0.64-0.67,0.96-1.58,0.96-2.72V5.63h-2.33c-0.9,0-1.72,0.13-2.46,0.38c-0.74,0.25-1.37,0.6-1.9,1.05s-0.94,0.97-1.23,1.58
				c-0.29,0.61-0.44,1.28-0.44,1.99c0,0.86,0.16,1.6,0.48,2.21C114.26,13.46,114.69,13.97,115.25,14.36z M115.25,9.2
				c0.22-0.44,0.52-0.81,0.89-1.12c0.37-0.31,0.79-0.55,1.26-0.72c0.46-0.16,0.93-0.25,1.43-0.25v0h2.35l-0.83,0.41v6.54h-1.47
				c-0.55,0-1.06-0.08-1.54-0.23c-0.48-0.15-0.9-0.37-1.26-0.66c-0.36-0.29-0.65-0.65-0.86-1.07c-0.21-0.42-0.31-0.91-0.31-1.46
				C114.91,10.12,115.02,9.64,115.25,9.2z M82.56,4.18H81.1V2.72h1.46V4.18z M125.49,19.52c-0.39,0-0.78-0.05-1.18-0.16l0.38-1.4
				c0.17,0.05,0.3,0.08,0.4,0.09c0.1,0.01,0.21,0.02,0.35,0.02c0.28,0,0.51-0.04,0.68-0.12c0.18-0.08,0.32-0.21,0.42-0.38
				c0.1-0.18,0.18-0.41,0.22-0.69c0.04-0.29,0.06-0.63,0.06-1.05V5.63h1.46v10.19c0,0.57-0.05,1.08-0.14,1.54
				c-0.09,0.45-0.25,0.84-0.46,1.16c-0.22,0.32-0.51,0.57-0.86,0.74C126.45,19.43,126.01,19.52,125.49,19.52z M121.81,4.18h-3.19
				V2.99c0-0.64,0.15-1.11,0.45-1.4c0.29-0.29,0.73-0.44,1.28-0.44h1.03v1.01h-1c-0.23,0-0.38,0.04-0.45,0.13
				c-0.08,0.1-0.12,0.24-0.12,0.43v0.34h2V4.18z M78.59,19.32h3.03v-1.09c0.03,0.05,0.06,0.1,0.09,0.15
				c0.22,0.32,0.51,0.57,0.86,0.74c0.36,0.17,0.8,0.25,1.32,0.25h27.19V5.63h-1.46v12.28h-1.51H83.94c-0.28,0-0.51-0.04-0.68-0.12
				c-0.18-0.08-0.32-0.21-0.42-0.38c-0.1-0.18-0.18-0.41-0.22-0.69c-0.04-0.29-0.06-0.63-0.06-1.05V5.63h-3.93
				c-4.02,0-6.77,3.19-6.77,6.84v0.04C71.86,16.16,74.56,19.32,78.59,19.32z M73.41,12.44c0-3,2.15-5.42,5.18-5.42h3.41L81.1,7.46
				v8.22c0,0.57,0.05,1.08,0.14,1.54c0.05,0.26,0.13,0.5,0.23,0.72l-2.84,0c-3.02,0-5.22-2.46-5.22-5.46V12.44z"/>
			<g>
				<polygon class="st0" points="5.6,88.23 4.53,88.23 2.45,85.5 1.43,86.55 1.43,88.23 0.54,88.23 0.54,82.41 1.43,82.41 
					1.43,85.54 4.39,82.41 5.46,82.41 3.06,84.9 				"/>
				<rect x="6.8" y="82.41" class="st0" width="0.89" height="5.83"/>
				<polygon class="st0" points="14.53,82.41 14.53,88.23 13.77,88.23 10.35,83.82 10.35,88.23 9.47,88.23 9.47,82.41 10.33,82.41 
					13.65,86.7 13.65,82.41 				"/>
				<path class="st0" d="M21.44,85.05v2.4c-0.49,0.41-1.3,0.89-2.42,0.89c-1.78,0-3.03-1.23-3.03-3v-0.02
					c0-1.69,1.32-3.02,3.01-3.02c0.91,0,1.55,0.22,2.19,0.74l-0.56,0.67c-0.45-0.37-0.91-0.61-1.66-0.61
					c-1.11,0-2.02,0.98-2.02,2.21c0,1.31,0.87,2.22,2.11,2.22c0.56,0,1.09-0.17,1.49-0.47l0.03-0.03V85.8h-1.53v-0.76H21.44z"/>
				<path class="st0" d="M25.2,82.41h-2.15v5.83h2.15c1.8,0,3.1-1.22,3.1-2.91C28.3,83.62,27,82.41,25.2,82.41z M25.2,87.43h-1.26
					V83.2h1.26c1.27,0,2.16,0.87,2.16,2.11C27.36,86.57,26.47,87.43,25.2,87.43z"/>
				<path class="st0" d="M32.5,82.3c-1.75,0-3.06,1.3-3.06,3.02v0.02c0,1.71,1.31,3,3.04,3c1.74,0,3.06-1.29,3.06-3.02
					C35.55,83.59,34.24,82.3,32.5,82.3z M34.6,85.34c0,1.25-0.9,2.19-2.1,2.19c-1.19,0-2.12-0.97-2.12-2.21
					c0-1.26,0.9-2.21,2.1-2.21c1.19,0,2.12,0.97,2.12,2.21V85.34z"/>
				<polygon class="st0" points="42.74,82.41 42.74,88.23 41.85,88.23 41.85,83.76 39.86,86.72 37.89,83.78 37.89,88.23 
					37.01,88.23 37.01,82.41 38.01,82.41 39.88,85.3 41.74,82.41 				"/>
				<path class="st0" d="M50.21,82.3c-1.74,0-3.06,1.3-3.06,3.02v0.02c0,1.71,1.31,3,3.04,3c1.75,0,3.06-1.29,3.06-3.02
					C53.25,83.59,51.94,82.3,50.21,82.3z M52.31,85.34c0,1.25-0.9,2.19-2.1,2.19c-1.19,0-2.11-0.97-2.11-2.21
					c0-1.26,0.9-2.21,2.1-2.21c1.19,0,2.12,0.97,2.12,2.21V85.34z"/>
				<polygon class="st0" points="55.61,83.2 55.61,85 58.63,85 58.63,85.8 55.61,85.8 55.61,88.23 54.72,88.23 54.72,82.41 
					59.01,82.41 59.01,83.2 				"/>
				<path class="st0" d="M67.54,86.61c0,1.04-0.81,1.71-2.06,1.71c-0.89,0-1.71-0.31-2.39-0.89l0.53-0.63
					c0.62,0.52,1.2,0.75,1.88,0.75c0.69,0,1.14-0.33,1.14-0.85c0-0.51-0.33-0.74-1.41-0.99c-1.25-0.3-1.93-0.66-1.93-1.73
					c0-0.98,0.81-1.66,1.96-1.66c0.8,0,1.46,0.22,2.06,0.69l-0.47,0.67c-0.54-0.39-1.07-0.58-1.61-0.58c-0.62,0-1.05,0.33-1.05,0.81
					c0,0.52,0.32,0.74,1.48,1.02C67.02,85.25,67.54,85.71,67.54,86.61z"/>
				<path class="st0" d="M71.77,82.36H70.9l-2.56,5.87h0.91l0.61-1.44h2.94l0.61,1.44h0.93L71.77,82.36z M70.17,86.02l1.15-2.68
					l1.15,2.68H70.17z"/>
				<path class="st0" d="M80.12,82.41v3.31c0,1.66-0.91,2.61-2.49,2.61c-1.57,0-2.47-0.93-2.47-2.56v-3.37h0.89v3.32
					c0,1.14,0.58,1.79,1.59,1.79c1.01,0,1.59-0.64,1.59-1.75v-3.37H80.12z"/>
				<path class="st0" d="M83.97,82.41h-2.15v5.83h2.15c1.8,0,3.1-1.22,3.1-2.91C87.07,83.62,85.77,82.41,83.97,82.41z M83.97,87.43
					h-1.26V83.2h1.26c1.27,0,2.16,0.87,2.16,2.11C86.12,86.57,85.24,87.43,83.97,87.43z"/>
				<rect x="88.56" y="82.41" class="st0" width="0.89" height="5.83"/>
				<path class="st0" d="M97.32,82.36h-0.87l-2.56,5.87h0.91l0.61-1.44h2.94l0.61,1.44h0.94L97.32,82.36z M95.72,86.02l1.15-2.68
					l1.15,2.68H95.72z"/>
				<path class="st0" d="M104.33,86l0.11-0.03c0.88-0.25,1.37-0.87,1.37-1.74c0-0.51-0.17-0.94-0.47-1.25
					c-0.38-0.38-0.96-0.57-1.67-0.57h-2.59v5.83h0.89v-2.09h1.42l0.04,0.04l1.45,2.05h1.05L104.33,86z M101.97,85.37V83.2h1.61
					c0.84,0,1.32,0.39,1.32,1.07c0,0.68-0.52,1.1-1.31,1.1H101.97z"/>
				<path class="st0" d="M110.41,82.36h-0.87l-2.56,5.87h0.9l0.62-1.44h2.94l0.61,1.44h0.94L110.41,82.36z M108.81,86.02l1.15-2.68
					l1.16,2.68H108.81z"/>
				<path class="st0" d="M117.86,85.27l-0.18-0.06l0.17-0.08c0.55-0.28,0.81-0.7,0.81-1.26c0-0.39-0.12-0.7-0.38-0.95
					c-0.33-0.33-0.85-0.51-1.51-0.51h-2.61v5.83h2.69c1.34,0,2.14-0.58,2.14-1.56C118.99,85.97,118.64,85.54,117.86,85.27z
					 M115.04,83.18h1.59c0.71,0,1.13,0.32,1.13,0.84c0,0.59-0.44,0.91-1.21,0.91h-1.52V83.18z M116.87,87.46h-1.82v-1.8h1.75
					c1.14,0,1.31,0.55,1.31,0.88C118.1,87.13,117.65,87.46,116.87,87.46z"/>
				<rect x="120.46" y="82.41" class="st0" width="0.89" height="5.83"/>
				<path class="st0" d="M125.99,82.36h-0.87l-2.56,5.87h0.9l0.61-1.44h2.94l0.61,1.44h0.93L125.99,82.36z M124.39,86.02l1.15-2.68
					l1.16,2.68H124.39z"/>
				<path class="st0" d="M92.79,69.3h-0.86v0.86h0.86V69.3z M82.3,76.82h0.84V69.3H82.3V76.82z M9.08,71.13H8.24v4.85H4.91v-4.85
					H3.59c-0.52,0-1,0.07-1.42,0.21c-0.43,0.14-0.79,0.34-1.09,0.6c-0.3,0.25-0.53,0.56-0.7,0.91c-0.16,0.35-0.25,0.73-0.25,1.13
					c0,0.5,0.09,0.92,0.28,1.28s0.44,0.65,0.75,0.88c0.31,0.23,0.68,0.4,1.1,0.51c0.42,0.11,0.86,0.17,1.32,0.17h5.49V71.13z
					 M4.07,75.98H3.24c-0.31,0-0.61-0.05-0.89-0.14c-0.28-0.09-0.52-0.22-0.72-0.39c-0.21-0.17-0.37-0.38-0.49-0.63
					c-0.12-0.25-0.18-0.53-0.18-0.84c0-0.3,0.06-0.57,0.19-0.82c0.13-0.25,0.3-0.46,0.51-0.64c0.21-0.18,0.46-0.31,0.73-0.41
					c0.27-0.09,0.55-0.14,0.84-0.14h0.83V75.98z M6.75,78.67h0.86v-0.86H6.75V78.67z M4.9,69.3H4.04v0.86H4.9V69.3z M56.09,69.3
					h-0.86v0.86h0.86V69.3z M8.22,78.67h0.86v-0.86H8.22V78.67z M57.56,69.3H56.7v0.86h0.86V69.3z M91.32,69.3h-0.86v0.86h0.86V69.3
					z M3.44,69.3H2.58v0.86h0.86V69.3z M60.35,78.67h0.86v-0.86h-0.86V78.67z M65.73,71.13H64.9v4.85h-3.16v-4.85h-0.84v4.85h-3.33
					v-4.85h-1.32c-0.52,0-1,0.07-1.43,0.21c-0.43,0.14-0.79,0.34-1.09,0.6c-0.3,0.25-0.53,0.56-0.7,0.91
					c-0.16,0.35-0.25,0.73-0.25,1.13c0,0.5,0.09,0.92,0.28,1.28c0.19,0.36,0.44,0.65,0.75,0.88c0.31,0.23,0.68,0.4,1.1,0.51
					c0.42,0.11,0.86,0.17,1.32,0.17h9.49V71.13z M56.72,75.98H55.9c-0.31,0-0.61-0.05-0.89-0.14c-0.28-0.09-0.52-0.22-0.72-0.39
					c-0.21-0.17-0.37-0.38-0.49-0.63c-0.12-0.25-0.18-0.53-0.18-0.84c0-0.3,0.06-0.57,0.19-0.82c0.13-0.25,0.3-0.46,0.51-0.64
					c0.21-0.18,0.46-0.31,0.73-0.41c0.27-0.09,0.55-0.14,0.84-0.14h0.83V75.98z M61.82,78.67h0.86v-0.86h-0.86V78.67z M14.49,71.86
					c-0.22-0.24-0.47-0.43-0.75-0.55c-0.28-0.12-0.61-0.18-1.01-0.18h-0.62v0.84h0.73c0.2,0,0.39,0.04,0.58,0.13
					c0.18,0.09,0.33,0.2,0.45,0.34c0.12,0.15,0.2,0.31,0.25,0.48c0.05,0.17,0.07,0.38,0.07,0.63v2.43h-3.93v0.84h4.77v-3.3
					c0-0.33-0.04-0.64-0.13-0.92C14.8,72.31,14.67,72.07,14.49,71.86z M79.02,75.98h-3.56l1.47-3.51c-0.22-0.2-0.46-0.38-0.71-0.55
					c-0.25-0.17-0.51-0.32-0.78-0.45c-0.27-0.13-0.53-0.23-0.81-0.3c-0.27-0.07-0.54-0.11-0.81-0.11c-0.27,0-0.54,0.04-0.82,0.11
					c-0.27,0.07-0.54,0.17-0.81,0.3c-0.27,0.13-0.53,0.28-0.78,0.45c-0.25,0.17-0.48,0.36-0.7,0.56l1.48,3.51h-3.12v-4.85h-0.84V77
					c0,0.24-0.01,0.44-0.04,0.6c-0.02,0.16-0.07,0.3-0.13,0.4c-0.06,0.1-0.14,0.17-0.24,0.22c-0.1,0.05-0.23,0.07-0.39,0.07
					c-0.08,0-0.14,0-0.2-0.01c-0.06-0.01-0.13-0.02-0.23-0.05l-0.22,0.81c0.23,0.06,0.46,0.09,0.68,0.09c0.3,0,0.55-0.05,0.76-0.15
					c0.21-0.1,0.37-0.24,0.5-0.42c0.13-0.19,0.21-0.41,0.27-0.67c0.05-0.26,0.08-0.56,0.08-0.89v-0.18h10.78V69.3h-0.84V75.98z
					 M73.08,75.98l-1.31-3.22c0.32-0.27,0.65-0.47,0.99-0.6c0.34-0.13,0.69-0.19,1.06-0.19c0.38,0,0.75,0.08,1.12,0.23
					c0.37,0.15,0.68,0.34,0.94,0.56l-1.31,3.22H73.08z M64.88,78.67h0.86v-0.86h-0.86V78.67z M127.38,69.3v7.52h0.84V69.3H127.38z
					 M124.1,75.98h-2.88c0.17-0.38,0.26-0.8,0.26-1.24c0-0.43-0.08-0.84-0.24-1.21c-0.16-0.37-0.37-0.7-0.64-0.97
					s-0.6-0.49-0.97-0.64s-0.78-0.24-1.21-0.24c-0.42,0-0.81,0.08-1.17,0.24c-0.36,0.16-0.68,0.38-0.95,0.65
					c-0.27,0.28-0.48,0.6-0.63,0.97c-0.15,0.37-0.23,0.77-0.23,1.19c0,0.22,0.02,0.44,0.07,0.64c0.05,0.21,0.11,0.4,0.18,0.59h-2.6
					c0.17-0.38,0.26-0.8,0.26-1.24c0-0.43-0.08-0.84-0.24-1.21c-0.16-0.37-0.37-0.7-0.64-0.97c-0.27-0.27-0.6-0.49-0.97-0.64
					s-0.78-0.24-1.21-0.24c-0.42,0-0.81,0.08-1.17,0.24c-0.36,0.16-0.68,0.38-0.95,0.65c-0.27,0.28-0.48,0.6-0.63,0.97
					c-0.15,0.37-0.23,0.77-0.23,1.19c0,0.22,0.02,0.44,0.07,0.64c0.05,0.21,0.11,0.4,0.18,0.59h-2.66V69.3h-0.84v6.68h-2.67V74.7
					c0-0.32-0.04-0.63-0.13-0.92c-0.08-0.29-0.22-0.54-0.4-0.74c-0.22-0.24-0.46-0.43-0.73-0.54c-0.27-0.12-0.62-0.18-1.04-0.18
					h-3.71l1.58-3.02h-0.91l-1.61,3.01c0.03,0.18,0.07,0.34,0.13,0.47c0.06,0.13,0.14,0.26,0.25,0.38h4.28
					c0.27,0,0.49,0.04,0.69,0.12c0.19,0.08,0.35,0.19,0.47,0.33c0.12,0.14,0.2,0.3,0.24,0.48c0.04,0.18,0.06,0.38,0.06,0.61v1.28
					h-7.75v-4.85h-1.32c-0.52,0-1,0.07-1.43,0.21c-0.43,0.14-0.79,0.34-1.09,0.6c-0.3,0.25-0.53,0.56-0.7,0.91
					c-0.16,0.35-0.25,0.73-0.25,1.13c0,0.5,0.09,0.92,0.28,1.28s0.44,0.65,0.75,0.88c0.31,0.23,0.68,0.4,1.1,0.51
					c0.42,0.11,0.86,0.17,1.32,0.17h16.63c0.27,0.29,0.6,0.53,0.97,0.7c0.37,0.17,0.78,0.26,1.22,0.26c0.45,0,0.86-0.08,1.25-0.25
					c0.39-0.17,0.72-0.4,1-0.7h3.69c0.27,0.29,0.6,0.53,0.97,0.7c0.37,0.17,0.78,0.26,1.22,0.26c0.45,0,0.86-0.08,1.25-0.25
					c0.39-0.17,0.72-0.4,1-0.7h4.26V69.3h-0.84V75.98z M91.96,75.98h-0.83c-0.31,0-0.61-0.05-0.89-0.14
					c-0.28-0.09-0.52-0.22-0.72-0.39c-0.21-0.17-0.37-0.38-0.49-0.63c-0.12-0.25-0.18-0.53-0.18-0.84c0-0.3,0.06-0.57,0.19-0.82
					c0.13-0.25,0.3-0.46,0.51-0.64c0.21-0.18,0.46-0.31,0.73-0.41c0.27-0.09,0.55-0.14,0.84-0.14h0.83V75.98z M112.34,75.61
					c-0.12,0.27-0.27,0.5-0.47,0.7c-0.2,0.2-0.43,0.35-0.7,0.46c-0.27,0.11-0.56,0.16-0.87,0.16c-0.31,0-0.59-0.06-0.85-0.17
					s-0.49-0.27-0.68-0.47c-0.19-0.2-0.34-0.43-0.45-0.7c-0.11-0.27-0.16-0.55-0.16-0.85c0-0.3,0.05-0.58,0.16-0.85
					c0.11-0.27,0.26-0.5,0.45-0.7c0.19-0.2,0.41-0.36,0.68-0.48c0.26-0.12,0.55-0.18,0.86-0.18c0.32,0,0.62,0.06,0.89,0.17
					c0.27,0.11,0.5,0.27,0.7,0.46c0.2,0.2,0.35,0.43,0.47,0.7s0.17,0.56,0.17,0.89C112.51,75.05,112.45,75.34,112.34,75.61z
					 M120.47,75.61c-0.12,0.27-0.27,0.5-0.47,0.7c-0.2,0.2-0.43,0.35-0.7,0.46c-0.27,0.11-0.56,0.16-0.87,0.16
					c-0.31,0-0.59-0.06-0.85-0.17c-0.26-0.12-0.49-0.27-0.68-0.47c-0.19-0.2-0.34-0.43-0.45-0.7c-0.11-0.27-0.16-0.55-0.16-0.85
					c0-0.3,0.05-0.58,0.16-0.85c0.11-0.27,0.26-0.5,0.45-0.7c0.19-0.2,0.41-0.36,0.68-0.48c0.26-0.12,0.55-0.18,0.86-0.18
					c0.32,0,0.62,0.06,0.89,0.17c0.27,0.11,0.5,0.27,0.7,0.46c0.2,0.2,0.35,0.43,0.47,0.7c0.11,0.27,0.17,0.56,0.17,0.89
					C120.64,75.05,120.58,75.34,120.47,75.61z M43.62,75.98h-1.37c-0.49,0-0.87-0.07-1.15-0.21c-0.28-0.14-0.5-0.35-0.66-0.63
					c0.05-0.22,0.07-0.48,0.07-0.79v-2.7h-0.84v2.84c0,0.48-0.13,0.87-0.39,1.16c-0.26,0.29-0.65,0.43-1.17,0.43
					c-0.24,0-0.47-0.04-0.67-0.12c-0.2-0.08-0.38-0.18-0.52-0.31c-0.15-0.13-0.26-0.29-0.35-0.47c-0.08-0.18-0.13-0.37-0.14-0.57
					v-2.97H35.6v2.9c0,0.26-0.04,0.48-0.12,0.65c-0.08,0.18-0.18,0.32-0.31,0.44c-0.13,0.12-0.28,0.2-0.45,0.25
					c-0.17,0.05-0.35,0.08-0.53,0.08h-1.62v-4.33h-0.84v4.33h-4.4l1.47-3.51c-0.22-0.2-0.46-0.38-0.71-0.55
					c-0.25-0.17-0.51-0.32-0.78-0.45c-0.27-0.13-0.53-0.23-0.81-0.3c-0.27-0.07-0.54-0.11-0.81-0.11c-0.27,0-0.54,0.04-0.82,0.11
					c-0.27,0.07-0.54,0.17-0.81,0.3c-0.27,0.13-0.53,0.28-0.78,0.45c-0.25,0.17-0.48,0.36-0.7,0.56l1.48,3.51h-2.9v-4.85h-1.34
					c-0.52,0-0.99,0.07-1.41,0.22c-0.43,0.15-0.79,0.35-1.09,0.6c-0.3,0.25-0.54,0.56-0.71,0.91c-0.17,0.35-0.25,0.74-0.25,1.15
					c0,0.5,0.09,0.92,0.28,1.27c0.19,0.35,0.44,0.64,0.75,0.87c0.32,0.23,0.69,0.39,1.11,0.5c0.42,0.11,0.86,0.16,1.33,0.16h0.5
					v0.24c0,0.44-0.13,0.75-0.38,0.94c-0.25,0.19-0.6,0.28-1.06,0.28c-0.26,0-0.49-0.02-0.7-0.07c-0.21-0.05-0.44-0.13-0.71-0.25
					l-0.26,0.81c0.32,0.12,0.61,0.21,0.85,0.27c0.25,0.06,0.5,0.09,0.75,0.09c0.82,0,1.41-0.19,1.78-0.58
					c0.37-0.39,0.56-0.91,0.56-1.57v-0.16h13.02c0.41,0,0.77-0.09,1.08-0.26c0.32-0.17,0.57-0.41,0.77-0.7
					c0.2,0.34,0.48,0.6,0.83,0.79c0.35,0.19,0.76,0.28,1.25,0.28c0.5,0,0.93-0.09,1.28-0.26c0.35-0.17,0.62-0.44,0.81-0.81
					c0.07,0.12,0.16,0.24,0.26,0.35c0.1,0.12,0.23,0.22,0.39,0.31c0.16,0.09,0.35,0.16,0.58,0.22c0.17,0.04,0.38,0.06,0.6,0.07v0.01
					h2.42V69.3h-0.84V75.98z M20.32,75.98h-0.85c-0.31,0-0.61-0.04-0.89-0.13c-0.28-0.09-0.52-0.21-0.73-0.38
					c-0.21-0.17-0.37-0.37-0.49-0.62c-0.12-0.24-0.18-0.52-0.18-0.84c0-0.3,0.06-0.58,0.19-0.83c0.13-0.25,0.3-0.47,0.51-0.64
					c0.21-0.18,0.46-0.32,0.73-0.41c0.27-0.1,0.56-0.15,0.85-0.15h0.85V75.98z M24.94,75.98l-1.31-3.22
					c0.32-0.27,0.65-0.47,0.99-0.6c0.34-0.13,0.69-0.19,1.06-0.19c0.38,0,0.75,0.08,1.12,0.23c0.37,0.15,0.68,0.34,0.94,0.56
					l-1.31,3.22H24.94z M46.9,76.82h0.84V69.3H46.9V76.82z"/>
			</g>
		</g>
		<g>
			<path class="st0" d="M112.03,26.77c-10.27,0-17.74,7.75-17.74,17.22v0.1c0,9.46,7.37,17.12,17.64,17.12s17.74-7.75,17.74-17.22
				v-0.09C129.67,34.43,122.3,26.77,112.03,26.77z M122.01,44.08c0,5.71-4.09,10.37-9.99,10.37c-5.9,0-10.08-4.76-10.08-10.46v-0.09
				c0-5.71,4.09-10.37,9.99-10.37c5.9,0,10.08,4.76,10.08,10.46V44.08z M12.07,54.31h12.69v6.33H0.13v-5.8l11.08-9.08
				c4.14-3.42,5.75-5.23,5.75-7.99c0-2.81-1.85-4.33-4.47-4.33c-2.57,0-4.33,1.43-6.8,4.47l-5.14-4.14c3.28-4.47,6.47-6.9,12.41-6.9
				c6.9,0,11.46,4.04,11.46,10.27v0.09c0,5.56-2.85,8.32-8.75,12.89l-7.28,5.62l-1.41,1.09L12.07,54.31z M92.4,50.22v0.09
				c0,6.28-4.57,10.89-11.98,10.89c-5.99,0-10.13-2.38-12.98-5.75l5.04-4.8c2.28,2.57,4.66,3.99,8.04,3.99
				c2.76,0,4.71-1.57,4.71-4.04V50.5c0-2.71-2.43-4.23-6.52-4.23h-3.04l-1.14-4.66L85.2,30.87l-4.28,2.75H69.38v-6.28h22.49v5.52
				l-8.42,8.04C87.98,41.66,92.4,44.03,92.4,50.22z"/>
			<path class="st0" d="M56.72,45.54c-0.21-0.12-0.61-0.33-1.16-0.5c-0.79-0.25-1.88-0.44-3.18-0.23c-0.44,0.07-0.9,0.18-1.38,0.36
				c-0.05,0.02-0.09,0.03-0.14,0.05c-0.24,0.09-0.49,0.2-0.73,0.32c-0.21,0.11-0.41,0.22-0.62,0.34c-0.47,0.28-0.93,0.61-1.38,0.95
				c-0.51-3.1-0.26-5.99-0.14-7.4c0-0.01,0.01-0.01,0.02-0.01c1.1,0.69,0.79,2.62,0.56,3.18c0,0.01,0.01,0.02,0.02,0.01
				c1.37-1.62,0.7-3.4,0.42-3.86c-0.01-0.01,0.01-0.02,0.02-0.01c0.2,0.16,0.36,0.33,0.5,0.51c0.42,0.54,0.58,1.13,0.62,1.64
				c0.02,0.27,0.02,0.53,0,0.74c0,0.06-0.01,0.11-0.01,0.16c0,0.01,0.01,0.01,0.01,0.01c0,0,0.01,0,0.01,0
				c0.37-0.73,0.55-1.82-0.01-2.89c-0.15-0.29-0.35-0.57-0.62-0.85c-0.08-0.08-0.16-0.16-0.25-0.24c-0.01-0.01,0-0.02,0.01-0.02
				c0.08,0.02,0.16,0.04,0.24,0.07c0.23,0.08,0.44,0.19,0.62,0.33c0.42,0.31,0.7,0.73,0.87,1.17c0.14,0.36,0.2,0.74,0.2,1.07
				c0,0.01,0.02,0.01,0.02,0c0.26-0.95,0.1-1.66-0.22-2.18c-0.23-0.37-0.55-0.65-0.87-0.84c-0.22-0.13-0.43-0.22-0.62-0.28
				c-0.11-0.03-0.21-0.06-0.3-0.07c-0.01,0-0.01-0.02,0-0.02c0.1-0.01,0.2-0.01,0.29-0.02c0.23,0,0.44,0.02,0.62,0.05
				c0.37,0.07,0.65,0.2,0.87,0.34c0.35,0.24,0.52,0.51,0.58,0.62c0.01,0.01,0.02,0,0.02-0.01c-0.05-0.5-0.28-0.89-0.6-1.17
				c-0.25-0.22-0.55-0.37-0.87-0.46c-0.21-0.06-0.42-0.09-0.62-0.09c-0.28,0-0.55,0.04-0.78,0.14c-0.01,0-0.02-0.01-0.01-0.02
				c0.2-0.29,0.49-0.47,0.79-0.56c0.21-0.06,0.42-0.09,0.62-0.07c0.19,0.01,0.37,0.05,0.51,0.12c0.01,0,0.02-0.01,0.01-0.02
				c-0.16-0.18-0.33-0.32-0.52-0.42c-0.2-0.11-0.41-0.18-0.62-0.2c-0.55-0.06-1.12,0.17-1.49,0.74c0,0.01-0.01,0.01-0.02,0
				c-0.07-0.13-0.14-0.27-0.21-0.42c-0.15-0.35-0.27-0.74-0.34-1.13c0-0.01-0.02-0.01-0.02,0c-0.06,0.39-0.19,0.79-0.34,1.14
				c-0.06,0.15-0.13,0.29-0.2,0.42c0,0.01-0.01,0.01-0.02,0c-0.66-1-1.89-0.98-2.64-0.12c-0.01,0.01,0,0.02,0.01,0.02
				c0.5-0.24,1.44-0.17,1.92,0.51c0.01,0.01,0,0.02-0.01,0.02c-0.73-0.31-1.86-0.11-2.46,0.61c-0.22,0.26-0.36,0.58-0.4,0.97
				c0,0.01,0.01,0.02,0.02,0.01c0.05-0.09,0.16-0.28,0.38-0.47c0.35-0.31,0.97-0.63,1.98-0.53c0.01,0,0.01,0.02,0,0.02
				c-0.52,0.06-1.59,0.53-1.98,1.59c-0.17,0.47-0.22,1.06-0.02,1.78c0,0.01,0.02,0.01,0.02,0c0-0.02,0-0.03,0-0.05
				c0.01-0.96,0.56-2.26,1.92-2.58c0.01,0,0.02,0.01,0.01,0.02c-1.52,1.34-1.37,3-0.88,3.98c0.01,0.01,0.02,0.01,0.02-0.01
				c-0.07-0.74-0.12-2.06,1.1-3.05c0.01-0.01,0.02,0,0.02,0.01c-0.28,0.45-0.95,2.24,0.42,3.86c0.01,0.01,0.02,0,0.02-0.01
				c-0.23-0.55-0.54-2.49,0.56-3.18c0.01,0,0.02,0,0.02,0.01c0.12,1.42,0.37,4.3-0.14,7.4c-0.88-0.68-1.81-1.27-2.73-1.62
				c-0.11-0.04-0.23-0.08-0.34-0.12c-0.95-0.31-1.82-0.4-2.58-0.37c-1.22,0.05-2.15,0.42-2.67,0.68c-0.1,0.05-0.19,0.1-0.26,0.14
				c-0.03,0.02-0.01,0.06,0.02,0.05c0.08-0.02,0.16-0.05,0.24-0.07c0.94-0.26,1.83-0.34,2.67-0.26c0.92,0.08,1.78,0.33,2.58,0.7
				c1.13,0.51,2.15,1.24,3.07,2c-1.3,1.14-2.4,2.24-3.07,2.63c-0.03,0.02-0.07,0.04-0.1,0.05c-0.16-0.22-0.44-0.35-0.74-0.28
				c-0.26,0.06-0.48,0.27-0.54,0.53c-0.05,0.24,0.01,0.49,0.14,0.62c0.36,0.36,0.77,0.38,1.24,0.18c0.9-0.38,2.03-1.58,3.4-2.84
				c0.12-0.11,0.23-0.21,0.35-0.32c0.12,0.11,0.23,0.21,0.35,0.32c0.62,0.57,1.2,1.13,1.72,1.61c0.22,0.2,0.42,0.38,0.62,0.54
				c0.31,0.25,0.6,0.46,0.87,0.6c0.53,0.28,0.98,0.31,1.38-0.03c0.02-0.02,0.04-0.04,0.06-0.06c0.09-0.09,0.19-0.39,0.14-0.62
				c-0.03-0.14-0.1-0.26-0.2-0.35c-0.09-0.09-0.21-0.15-0.34-0.18c-0.3-0.07-0.58,0.06-0.74,0.28c-0.09-0.05-0.19-0.11-0.3-0.18
				c-0.25-0.17-0.54-0.41-0.87-0.7c-0.19-0.17-0.4-0.36-0.62-0.56c-0.43-0.39-0.89-0.82-1.39-1.25c0.44-0.37,0.9-0.72,1.39-1.05
				c0.2-0.14,0.41-0.27,0.62-0.4c0.28-0.17,0.57-0.32,0.87-0.46c0.44-0.21,0.9-0.39,1.38-0.53c0.98-0.28,2.04-0.38,3.18-0.2
				c0.37,0.06,0.75,0.15,1.13,0.27C56.73,45.59,56.75,45.55,56.72,45.54z"/>
			
				<rect x="45.98" y="62.91" transform="matrix(-0.7071 -0.7071 0.7071 -0.7071 35.4885 143.4734)" class="st0" width="2.95" height="2.95"/>
			
				<rect x="30.25" y="50.67" transform="matrix(0.309 -0.9511 0.9511 0.309 -27.6119 65.787)" class="st0" width="2.44" height="2.44"/>
			
				<rect x="37.27" y="30.11" transform="matrix(0.9877 0.1564 -0.1564 0.9877 5.34 -5.606)" class="st0" width="2.02" height="2.02"/>
			
				<rect x="62.05" y="42.74" transform="matrix(0.7071 -0.7071 0.7071 0.7071 -12.4635 57.4068)" class="st0" width="2.02" height="2.02"/>
			
				<rect x="61.29" y="37.91" transform="matrix(0.454 -0.891 0.891 0.454 -0.6664 76.764)" class="st0" width="2.02" height="2.02"/>
			
				<rect x="37.27" y="55.36" transform="matrix(-0.1564 -0.9877 0.9877 -0.1564 -11.4045 103.0066)" class="st0" width="2.02" height="2.02"/>
			
				<rect x="55.62" y="30.11" transform="matrix(-0.1564 -0.9877 0.9877 -0.1564 34.7508 91.9257)" class="st0" width="2.02" height="2.02"/>
			
				<rect x="41.62" y="57.58" transform="matrix(-0.454 -0.891 0.891 -0.454 9.7884 123.1786)" class="st0" width="2.02" height="2.02"/>
			
				<rect x="46.45" y="27.13" transform="matrix(-0.7071 -0.7071 0.7071 -0.7071 61.1172 81.6004)" class="st0" width="2.02" height="2.02"/>
			
				<rect x="44.5" y="29.51" transform="matrix(0.809 0.5878 -0.5878 0.809 26.4947 -20.8523)" class="st0" width="1.68" height="1.68"/>
			
				<rect x="48.74" y="56.31" transform="matrix(0.809 0.5878 -0.5878 0.809 43.0619 -18.2283)" class="st0" width="1.68" height="1.68"/>
			
				<rect x="34.53" y="36.75" transform="matrix(0.9511 -0.309 0.309 0.9511 -9.8841 12.7688)" class="st0" width="1.68" height="1.68"/>
			
				<rect x="58.71" y="49.07" transform="matrix(0.9511 -0.309 0.309 0.9511 -12.5081 20.8446)" class="st0" width="1.68" height="1.68"/>
			
				<rect x="33.22" y="45.03" transform="matrix(0.5878 -0.809 0.809 0.5878 -23.0723 46.4601)" class="st0" width="1.68" height="1.68"/>
			
				<rect x="65.61" y="48.65" transform="matrix(0.891 -0.454 0.454 0.891 -15.4446 35.9203)" class="st0" width="2.95" height="2.95"/>
			
				<rect x="33.85" y="58.97" transform="matrix(-0.1564 -0.9877 0.9877 -0.1564 -18.847 104.7934)" class="st0" width="2.95" height="2.95"/>
			
				<rect x="58.11" y="25.58" transform="matrix(-0.1564 -0.9877 0.9877 -0.1564 42.1934 90.1389)" class="st0" width="2.95" height="2.95"/>
			
				<rect x="28.51" y="45.33" transform="matrix(0.5878 -0.809 0.809 0.5878 -25.408 43.2454)" class="st0" width="2.44" height="2.44"/>
			
				<rect x="41.62" y="27.89" transform="matrix(0.891 0.454 -0.454 0.891 17.7702 -16.2058)" class="st0" width="2.02" height="2.02"/>
			
				<rect x="31.6" y="37.91" transform="matrix(0.891 -0.454 0.454 0.891 -14.1169 19.0503)" class="st0" width="2.02" height="2.02"/>
			
				<rect x="46.45" y="58.34" transform="matrix(-0.7071 -0.7071 0.7071 -0.7071 39.0473 134.8818)" class="st0" width="2.02" height="2.02"/>
			
				<rect x="58.71" y="36.75" transform="matrix(0.309 -0.9511 0.9511 0.309 5.4001 82.6074)" class="st0" width="1.68" height="1.68"/>
			
				<rect x="37.03" y="52.51" transform="matrix(4.233775e-11 -1 1 4.233775e-11 -15.4808 91.2068)" class="st0" width="1.68" height="1.68"/>
			
				<rect x="26.36" y="35.9" transform="matrix(0.891 -0.454 0.454 0.891 -13.9326 16.7077)" class="st0" width="2.95" height="2.95"/>
			
				<rect x="26.36" y="48.65" transform="matrix(0.454 -0.891 0.891 0.454 -29.467 52.166)" class="st0" width="2.95" height="2.95"/>
			
				<rect x="38.09" y="26.54" transform="matrix(0.9511 0.309 -0.309 0.9511 10.5016 -10.7892)" class="st0" width="2.44" height="2.44"/>
			
				<rect x="54.38" y="58.52" transform="matrix(0.9511 0.309 -0.309 0.9511 21.1818 -14.2594)" class="st0" width="2.44" height="2.44"/>
			
				<rect x="62.23" y="50.67" transform="matrix(0.9511 -0.309 0.309 0.9511 -12.9313 22.1468)" class="st0" width="2.44" height="2.44"/>
			
				<rect x="63.96" y="45.33" transform="matrix(0.809 -0.5878 0.5878 0.809 -14.9156 47.2057)" class="st0" width="2.44" height="2.44"/>
			
				<rect x="62.23" y="34.38" transform="matrix(0.309 -0.9511 0.9511 0.309 9.9841 84.9431)" class="st0" width="2.44" height="2.44"/>
			
				<rect x="58.93" y="29.84" transform="matrix(4.541618e-11 -1 1 4.541618e-11 29.0907 91.2068)" class="st0" width="2.44" height="2.44"/>
			
				<rect x="38.09" y="58.52" transform="matrix(-0.309 -0.9511 0.9511 -0.309 -5.3561 115.586)" class="st0" width="2.44" height="2.44"/>
			
				<rect x="49.04" y="60.25" transform="matrix(-0.809 -0.5878 0.5878 -0.809 54.7987 140.7529)" class="st0" width="2.44" height="2.44"/>
			
				<rect x="31.6" y="47.56" transform="matrix(0.454 -0.891 0.891 0.454 -25.4677 55.5817)" class="st0" width="2.02" height="2.02"/>
			<rect x="37.03" y="33.31" class="st0" width="1.68" height="1.68"/>
			
				<rect x="33.22" y="40.79" transform="matrix(0.809 -0.5878 0.5878 0.809 -17.9627 27.967)" class="st0" width="1.68" height="1.68"/>
			
				<rect x="52.78" y="30.82" transform="matrix(-0.309 -0.9511 0.9511 -0.309 40.081 92.4346)" class="st0" width="1.68" height="1.68"/>
			
				<rect x="48.74" y="29.51" transform="matrix(-0.5878 -0.809 0.809 -0.5878 54.175 88.2936)" class="st0" width="1.68" height="1.68"/>
			
				<rect x="56.31" y="49.99" transform="matrix(0.9877 -0.1564 0.1564 0.9877 -7.2269 9.5416)" class="st0" width="1.39" height="1.39"/>
			
				<rect x="58.56" y="43.05" transform="matrix(0.7071 -0.7071 0.7071 0.7071 -13.5781 54.7158)" class="st0" width="1.39" height="1.39"/>
			<rect x="65.61" y="35.9" transform="matrix(0.454 -0.891 0.891 0.454 3.3328 80.1797)" class="st0" width="2.95" height="2.95"/>
			<rect x="58.93" y="55.22" class="st0" width="2.44" height="2.44"/>
			
				<rect x="30.25" y="34.38" transform="matrix(0.9511 -0.309 0.309 0.9511 -9.461 11.4666)" class="st0" width="2.44" height="2.44"/>
			
				<rect x="54.38" y="26.54" transform="matrix(-0.309 -0.9511 0.9511 -0.309 46.3904 89.2198)" class="st0" width="2.44" height="2.44"/>
			
				<rect x="43.43" y="24.8" transform="matrix(-0.809 -0.5878 0.5878 -0.809 65.479 73.3205)" class="st0" width="2.44" height="2.44"/>
			
				<rect x="61.29" y="47.56" transform="matrix(0.891 -0.454 0.454 0.891 -15.2602 33.5777)" class="st0" width="2.02" height="2.02"/>
			
				<rect x="30.84" y="42.74" transform="matrix(0.7071 -0.7071 0.7071 0.7071 -21.6052 35.3369)" class="st0" width="2.02" height="2.02"/>
			
				<rect x="60.02" y="45.03" transform="matrix(0.809 -0.5878 0.5878 0.809 -15.3388 44.5342)" class="st0" width="1.68" height="1.68"/>
			
				<rect x="40.46" y="55" transform="matrix(-0.309 -0.9511 0.9511 -0.309 0.9532 112.3712)" class="st0" width="1.68" height="1.68"/>
			
				<rect x="46.76" y="54.85" transform="matrix(0.7071 0.7071 -0.7071 0.7071 53.1789 -17.2885)" class="st0" width="1.39" height="1.39"/>
			
				<rect x="39.83" y="33.51" transform="matrix(0.9877 0.1564 -0.1564 0.9877 5.8492 -5.9181)" class="st0" width="1.39" height="1.39"/>
			
				<rect x="35.54" y="46.7" transform="matrix(0.454 -0.891 0.891 0.454 -22.4438 58.1644)" class="st0" width="1.39" height="1.39"/>
			<rect x="33.55" y="29.84" class="st0" width="2.44" height="2.44"/>
			
				<rect x="49.04" y="24.8" transform="matrix(-0.5878 -0.809 0.809 -0.5878 58.759 81.9843)" class="st0" width="2.44" height="2.44"/>
			
				<rect x="51.27" y="57.58" transform="matrix(0.891 0.454 -0.454 0.891 32.2976 -17.3491)" class="st0" width="2.02" height="2.02"/>
			
				<rect x="33.82" y="51.91" transform="matrix(0.1564 -0.9877 0.9877 0.1564 -22.8853 79.0468)" class="st0" width="2.02" height="2.02"/>
			
				<rect x="59.07" y="33.56" transform="matrix(0.1564 -0.9877 0.9877 0.1564 16.535 88.5107)" class="st0" width="2.02" height="2.02"/>
			<rect x="56.22" y="52.51" class="st0" width="1.68" height="1.68"/>
			
				<rect x="60.02" y="40.79" transform="matrix(0.5878 -0.809 0.809 0.5878 -8.5875 66.3968)" class="st0" width="1.68" height="1.68"/>
			
				<rect x="44.5" y="56.31" transform="matrix(-0.5878 -0.809 0.809 -0.5878 25.747 127.4214)" class="st0" width="1.68" height="1.68"/>
			
				<rect x="43.12" y="31.83" transform="matrix(0.891 0.454 -0.454 0.891 19.5415 -16.3452)" class="st0" width="1.39" height="1.39"/>
			
				<rect x="50.41" y="54.28" transform="matrix(0.891 0.454 -0.454 0.891 30.5263 -17.2097)" class="st0" width="1.39" height="1.39"/>
			
				<rect x="53.7" y="52.6" transform="matrix(0.9877 0.1564 -0.1564 0.9877 9.0068 -7.853)" class="st0" width="1.39" height="1.39"/>
			
				<rect x="35.54" y="39.41" transform="matrix(0.891 -0.454 0.454 0.891 -14.2563 20.8216)" class="st0" width="1.39" height="1.39"/>
			
				<rect x="57.99" y="46.7" transform="matrix(0.891 -0.454 0.454 0.891 -15.1208 31.8064)" class="st0" width="1.39" height="1.39"/>
			
				<rect x="37.22" y="49.99" transform="matrix(0.1564 -0.9877 0.9877 0.1564 -18.0789 80.2007)" class="st0" width="1.39" height="1.39"/>
			
				<rect x="53.7" y="33.51" transform="matrix(-0.1564 -0.9877 0.9877 -0.1564 29.1232 93.2768)" class="st0" width="1.39" height="1.39"/>
			
				<rect x="43.12" y="54.28" transform="matrix(-0.454 -0.891 0.891 -0.454 14.7231 118.9639)" class="st0" width="1.39" height="1.39"/>
			
				<rect x="33.85" y="25.58" transform="matrix(0.9877 0.1564 -0.1564 0.9877 4.6667 -5.1934)" class="st0" width="2.95" height="2.95"/>
			
				<rect x="58.11" y="58.97" transform="matrix(0.9877 0.1564 -0.1564 0.9877 10.1894 -8.5777)" class="st0" width="2.95" height="2.95"/>
			
				<rect x="45.98" y="21.63" transform="matrix(-0.7071 -0.7071 0.7071 -0.7071 64.6759 73.0088)" class="st0" width="2.95" height="2.95"/>
			
				<rect x="28.51" y="39.72" transform="matrix(0.809 -0.5878 0.5878 0.809 -18.3859 25.2956)" class="st0" width="2.44" height="2.44"/>
			
				<rect x="63.96" y="39.72" transform="matrix(0.5878 -0.809 0.809 0.5878 -6.2518 69.6115)" class="st0" width="2.44" height="2.44"/>
			
				<rect x="33.55" y="55.22" transform="matrix(4.169382e-11 -1 1 4.169382e-11 -21.6699 91.2068)" class="st0" width="2.44" height="2.44"/>
			
				<rect x="43.43" y="60.25" transform="matrix(-0.5878 -0.809 0.809 -0.5878 21.163 133.7308)" class="st0" width="2.44" height="2.44"/>
			
				<rect x="55.62" y="55.36" transform="matrix(0.9877 0.1564 -0.1564 0.9877 9.516 -8.1651)" class="st0" width="2.02" height="2.02"/>
			
				<rect x="33.82" y="33.56" transform="matrix(0.9877 -0.1564 0.1564 0.9877 -4.9799 5.8748)" class="st0" width="2.02" height="2.02"/>
			
				<rect x="59.07" y="51.91" transform="matrix(0.9877 -0.1564 0.1564 0.9877 -7.5389 10.0507)" class="st0" width="2.02" height="2.02"/>
			
				<rect x="51.27" y="27.89" transform="matrix(-0.454 -0.891 0.891 -0.454 50.2605 88.6121)" class="st0" width="2.02" height="2.02"/>
			
				<rect x="40.46" y="30.82" transform="matrix(0.9511 0.309 -0.309 0.9511 11.8038 -11.2123)" class="st0" width="1.68" height="1.68"/>
			
				<rect x="52.78" y="55" transform="matrix(0.9511 0.309 -0.309 0.9511 19.8796 -13.8363)" class="st0" width="1.68" height="1.68"/>
			
				<rect x="34.53" y="49.07" transform="matrix(0.309 -0.9511 0.9511 0.309 -23.0279 68.1227)" class="st0" width="1.68" height="1.68"/>
			
				<rect x="56.22" y="33.31" transform="matrix(3.473850e-11 -1 1 3.473850e-11 22.9016 91.2068)" class="st0" width="1.68" height="1.68"/>
			
				<rect x="46.76" y="31.25" transform="matrix(0.7071 0.7071 -0.7071 0.7071 36.4909 -24.2009)" class="st0" width="1.39" height="1.39"/>
			
				<rect x="37.22" y="36.12" transform="matrix(0.9877 -0.1564 0.1564 0.9877 -5.2919 6.384)" class="st0" width="1.39" height="1.39"/>
			
				<rect x="34.96" y="43.05" transform="matrix(0.7071 -0.7071 0.7071 0.7071 -20.4905 38.0278)" class="st0" width="1.39" height="1.39"/>
			
				<rect x="57.99" y="39.41" transform="matrix(0.454 -0.891 0.891 0.454 -3.6904 74.1813)" class="st0" width="1.39" height="1.39"/>
			
				<rect x="56.31" y="36.12" transform="matrix(0.1564 -0.9877 0.9877 0.1564 11.7286 87.3568)" class="st0" width="1.39" height="1.39"/>
			
				<rect x="39.83" y="52.6" transform="matrix(-0.1564 -0.9877 0.9877 -0.1564 -5.7768 101.6556)" class="st0" width="1.39" height="1.39"/>
			
				<rect x="50.41" y="31.83" transform="matrix(-0.454 -0.891 0.891 -0.454 45.3258 92.8267)" class="st0" width="1.39" height="1.39"/>
		</g>
	</g>
</g>
</svg>
