<?xml version="1.0" encoding="UTF-8"?>
<svg id="Layer_2" data-name="Layer 2" xmlns="http://www.w3.org/2000/svg" viewBox="0 0 3242.4 750.08">
  <defs>
    <style>
      .cls-1 {
        fill: #00d2ff;
      }

      .cls-2 {
        fill: blue;
      }

      .cls-3 {
        fill: #000062;
      }

      .cls-4 {
        fill: #7f92ff;
      }

      .cls-5 {
        fill: #5e1ad5;
      }
    </style>
  </defs>
  <g id="Layer_1-2" data-name="Layer 1">
    <g>
      <g>
        <path class="cls-3" d="M1042.86,216.98h50.83c.22,0,.43-.02,.65-.02,.08,0,.18,0,.25,0,10.72-.14,20.51-2.67,29.35-7.78,8.97,5.11,18.76,7.65,29.35,7.78,.07,0,.17,0,.25,0,.22,0,.42,.02,.64,.02h.28c.23,0,.46-.02,.69-.02,.06,0,.14,0,.2,0,10.72-.13,20.51-2.67,29.36-7.78,9.23,5.25,19.31,7.81,30.25,7.81h101.81c11.07,0,21.16-2.56,30.24-7.81,8.98,5.11,18.76,7.65,29.35,7.78,.08,0,.19,0,.28,0,.21,0,.41,.02,.62,.02h.28s.09,0,.14,0c.49,0,.89-.03,1.19-.06,14.99-.35,29.17-6.43,37.44-14.7V113.32h-16.9v81.65c-5.68,2.98-14.05,4.54-22.01,4.54s-16.19-1.56-21.86-4.54v-49h-16.9v49c-6.11,2.98-13.35,4.54-22.01,4.54h-29.11c9.51-7.53,14.34-17.04,14.34-28.26,0-19.45-14.77-32.52-35.93-32.52s-36.07,13.06-36.07,32.52c0,11.22,4.83,20.73,14.34,28.26h-29.11c-8.09,0-16.19-1.56-21.86-4.54v-49h-16.9v49c-6.11,2.98-13.35,4.54-22.01,4.54-8.1,0-16.19-1.56-21.87-4.54v-49h-16.9v49c-6.11,2.98-13.35,4.54-22.01,4.54h-21.58v-47.14c-7.38-4.12-19.17-7.81-31.1-7.81-23.29,0-38.77,14.06-38.77,36.21s16.19,36.21,40.75,36.21Zm223.08-62.06c11.22,0,19.03,7.24,19.03,18.46,0,5.54-1.99,10.51-5.82,14.63-3.83,4.12-8.24,7.1-13.21,9.23-5.11-1.99-9.65-5.11-13.49-9.23-3.83-4.12-5.68-9.09-5.68-14.63,0-10.93,7.95-18.46,19.17-18.46Zm-226.34,5.54c5.82,0,11.08,1.14,15.48,3.55v35.5h-14.63c-13.06,0-21.59-6.82-21.59-19.31s8.81-19.74,20.73-19.74Z"/>
        <path class="cls-3" d="M1027.24,132.2c5.54,0,10.08-4.54,10.08-10.22s-4.54-10.22-10.08-10.22c-5.82,0-10.37,4.54-10.37,10.22s4.54,10.22,10.37,10.22Z"/>
        <path class="cls-3" d="M1054.94,132.2c5.68,0,10.22-4.54,10.22-10.22s-4.55-10.22-10.22-10.22-10.09,4.54-10.09,10.22,4.4,10.22,10.09,10.22Z"/>
        <path class="cls-3" d="M1128.06,237.57c0,5.54,4.4,10.08,10.08,10.08s10.23-4.54,10.23-10.08c0-5.82-4.55-10.22-10.23-10.22s-10.08,4.4-10.08,10.22Z"/>
        <path class="cls-3" d="M1110.45,247.65c5.54,0,10.08-4.54,10.08-10.08s-4.4-10.22-10.08-10.22-10.37,4.4-10.37,10.22,4.54,10.08,10.37,10.08Z"/>
        <path class="cls-3" d="M1185,133.19c5.68,0,10.22-4.54,10.22-10.22s-4.54-10.37-10.22-10.37-10.37,4.55-10.37,10.37,4.54,10.22,10.37,10.22Z"/>
        <path class="cls-3" d="M1252.03,126.38c5.54,0,10.09-4.55,10.09-10.23s-4.55-10.22-10.09-10.22c-5.82,0-10.37,4.55-10.37,10.22s4.55,10.23,10.37,10.23Z"/>
        <path class="cls-3" d="M1279.72,126.38c5.68,0,10.22-4.55,10.22-10.23s-4.54-10.22-10.22-10.22-10.08,4.55-10.08,10.22,4.4,10.23,10.08,10.23Z"/>
        <path class="cls-3" d="M1333.53,133.19c5.54,0,10.08-4.54,10.08-10.22s-4.54-10.22-10.08-10.22c-5.82,0-10.37,4.55-10.37,10.22s4.55,10.22,10.37,10.22Z"/>
        <path class="cls-3" d="M1361.22,133.19c5.68,0,10.23-4.54,10.23-10.22s-4.55-10.22-10.23-10.22-10.08,4.55-10.08,10.22,4.4,10.22,10.08,10.22Z"/>
        <rect class="cls-3" x="1445" y="113.32" width="16.9" height="103.66"/>
        <path class="cls-3" d="M1525.51,216.98h12.35c-.99,14.06-8.24,20.73-24.57,20.73-8.38,0-17.33-1.85-22.87-3.98l-2.98,16.04c7.53,2.7,16.9,4.12,25.28,4.12,25.99,0,42.03-12.92,42.03-41.89v-56.95c-10.37-5.25-20.88-7.81-31.24-7.81-23.71,0-38.91,14.2-38.91,35.08s15.2,34.65,40.9,34.65Zm-2.98-53.96c5.25,0,10.37,1.14,15.34,3.55v32.94h-15.05c-12.64,0-21.44-6.67-21.44-18.18s8.81-18.32,21.16-18.32Z"/>
        <path class="cls-3" d="M1672.62,199.51h-20.59c-9.52-.99-15.48-5.54-15.48-15.19,0-8.66,4.97-13.63,12.78-13.63,3.83,0,7.24,1.28,9.94,3.7l11.36-10.65c-5.25-4.97-13.49-8.24-22.15-8.24-16.05,0-27.13,11.5-27.13,26.84,0,6.82,1.99,12.5,6.11,17.18h-13.77v17.47h58.93v-17.47Z"/>
        <path class="cls-3" d="M1704.43,209.31c7.89,4.43,18.9,7.49,31.03,7.64,.12,0,.28,0,.41,.01,.17,0,.33,.02,.5,.02h246.36c15.48,0,30.25-6.25,38.77-14.77V113.32h-16.9v81.65c-5.68,2.98-14.06,4.54-22.01,4.54h-29.11c9.52-7.53,14.34-17.04,14.34-28.26,0-19.45-14.77-32.52-35.93-32.52s-36.07,13.06-36.07,32.52c0,11.22,4.83,20.73,14.34,28.26h-49.83v-19.03c0-12.64-3.27-22.44-9.8-29.11-6.39-6.67-14.91-10.08-25.56-10.08-17.18,0-32.09,9.09-49.56,27.12v-17.04h-16.9v48.14h-22.01c-8.1,0-16.19-1.56-22.01-4.54V113.32h-16.9v84.35c0,6.11,1.71,8.95,6.82,11.64Zm227.48-54.39c11.22,0,19.03,7.24,19.03,18.46,0,5.54-1.99,10.51-5.82,14.63-3.83,4.12-8.24,7.1-13.21,9.23-5.11-1.99-9.66-5.11-13.49-9.23-3.83-4.12-5.68-9.09-5.68-14.63,0-10.93,7.95-18.46,19.17-18.46Zm-156.48,34.22c18.6-21.58,32.52-31.38,46.86-31.38,7.53,0,12.92,2.41,16.19,7.24,3.41,4.83,5.12,10.93,5.12,18.18v16.33h-68.17v-10.37Z"/>
        <path class="cls-3" d="M1791.9,128.51c5.68,0,10.22-4.55,10.22-10.22s-4.54-10.37-10.22-10.37-10.37,4.54-10.37,10.37,4.55,10.22,10.37,10.22Z"/>
        <path class="cls-3" d="M1931.77,126.38c5.68,0,10.22-4.55,10.22-10.23s-4.54-10.37-10.22-10.37-10.37,4.55-10.37,10.37,4.54,10.23,10.37,10.23Z"/>
        <rect class="cls-3" x="2050.19" y="113.32" width="16.9" height="103.66"/>
        <path class="cls-3" d="M2130.7,216.98h12.36c-1,14.06-8.24,20.73-24.57,20.73-8.38,0-17.32-1.85-22.86-3.98l-2.98,16.04c7.53,2.7,16.9,4.12,25.28,4.12,25.99,0,42.04-12.92,42.04-41.89v-56.95c-10.37-5.25-20.88-7.81-31.24-7.81-23.72,0-38.91,14.2-38.91,35.08s15.19,34.65,40.9,34.65Zm-2.98-53.96c5.25,0,10.37,1.14,15.34,3.55v32.94h-15.05c-12.64,0-21.44-6.67-21.44-18.18s8.8-18.32,21.16-18.32Z"/>
        <path class="cls-3" d="M2260.49,216.98h56.09c20.31,0,36.49-3.55,46.01-8.66v-62.34h-16.9v49.42c-5.11,2.42-14.77,4.12-26.7,4.12h-57.37c-17.04,0-25.56-7.24-25.56-21.73,0-4.83,.85-10.51,2.69-16.9l-15.48-2.84c-2.7,8.8-3.98,17.04-3.98,24.71,0,24.85,15.05,34.22,41.18,34.22Z"/>
        <path class="cls-3" d="M2305.08,150.66c5.68,0,10.23-4.55,10.23-10.22s-4.55-10.22-10.23-10.22-10.08,4.54-10.08,10.22,4.4,10.22,10.08,10.22Z"/>
        <path class="cls-3" d="M2277.39,150.66c5.54,0,10.08-4.55,10.08-10.22s-4.55-10.22-10.08-10.22c-5.82,0-10.37,4.54-10.37,10.22s4.54,10.22,10.37,10.22Z"/>
        <path class="cls-3" d="M2465.25,202.21V113.32h-16.9v80.8c-4.97,3.41-11.93,5.25-20.88,5.4l-15.91-68.02h-16.76l15.62,68.02h-27.27v17.47h43.59c15.48,0,29.96-6.25,38.49-14.77Z"/>
        <path class="cls-3" d="M2500.75,209.31c7.89,4.43,18.9,7.49,31.03,7.64,.12,0,.28,0,.41,.01,.17,0,.33,.02,.5,.02h144.83c.12,0,.24-.01,.36-.01,.21,0,.43,0,.6-.02,7.19-.08,14.25-1.05,20.91-2.95,6.96-1.99,12.64-4.4,16.9-7.38v-60.64h-16.9v49.85c-4.97,2.27-13.35,3.69-22.01,3.69h-20.72v-19.03c0-12.64-3.27-22.44-9.8-29.11-6.39-6.67-14.91-10.08-25.56-10.08-17.18,0-32.09,9.09-49.56,27.12v-17.04h-16.9v48.14h-22.01c-8.1,0-16.19-1.56-22.01-4.54V113.32h-16.9v84.35c0,6.11,1.71,8.95,6.82,11.64Zm71-20.17c18.6-21.58,32.52-31.38,46.86-31.38,7.53,0,12.92,2.41,16.19,7.24,3.41,4.83,5.12,10.93,5.12,18.18v16.33h-68.17v-10.37Z"/>
        <path class="cls-3" d="M2693.58,133.19c5.54,0,10.08-4.54,10.08-10.22s-4.55-10.22-10.08-10.22c-5.82,0-10.37,4.55-10.37,10.22s4.54,10.22,10.37,10.22Z"/>
        <path class="cls-3" d="M2721.27,133.19c5.68,0,10.22-4.54,10.22-10.22s-4.54-10.22-10.22-10.22-10.08,4.55-10.08,10.22,4.4,10.22,10.08,10.22Z"/>
        <path class="cls-3" d="M2818.97,202.21V113.32h-16.9v80.8c-4.97,3.41-11.93,5.25-20.88,5.4l-15.91-68.02h-16.76l15.62,68.02h-27.27v17.47h43.59c15.48,0,29.96-6.25,38.49-14.77Z"/>
        <rect class="cls-3" x="2847.64" y="113.32" width="16.9" height="103.66"/>
        <path class="cls-3" d="M2975.59,132.2c5.68,0,10.22-4.54,10.22-10.22s-4.55-10.22-10.22-10.22-10.08,4.54-10.08,10.22,4.4,10.22,10.08,10.22Z"/>
        <path class="cls-3" d="M2947.89,132.2c5.54,0,10.08-4.54,10.08-10.22s-4.54-10.22-10.08-10.22c-5.82,0-10.37,4.54-10.37,10.22s4.55,10.22,10.37,10.22Z"/>
        <path class="cls-3" d="M3059.79,121.55h-8.24c-6.11,0-8.95-2.56-8.95-6.39,0-2.98,2.13-5.4,5.4-5.4,1.71,0,3.26,.57,4.54,1.71l6.11-6.53c-2.7-2.7-6.82-4.83-11.79-4.83-7.95,0-13.49,5.68-13.49,12.92,0,3.26,1.14,6.11,3.27,8.52h-6.82v11.08h29.96v-11.08Z"/>
        <path class="cls-3" d="M3101.96,237.57c0-5.68-4.4-10.22-10.08-10.22s-10.37,4.4-10.37,10.22,4.54,10.08,10.37,10.08,10.08-4.54,10.08-10.08Z"/>
        <path class="cls-3" d="M3119.57,227.35c-5.68,0-10.09,4.4-10.09,10.22s4.4,10.08,10.09,10.08,10.22-4.54,10.22-10.08c0-5.82-4.55-10.22-10.22-10.22Z"/>
        <path class="cls-3" d="M3225.93,137.17c-10.94-9.51-25.28-14.34-43.17-14.34-5.68,0-11.64,.43-17.75,1.28v15.62c5.68-.99,11.51-1.56,17.33-1.56,12.5,0,22.87,3.41,30.96,10.09,8.1,6.67,12.21,17.61,12.21,32.8v18.6h-23.15c5.25-5.54,7.81-12.21,7.81-20.31,0-17.18-13.49-28.4-30.25-28.4s-29.96,10.93-29.96,28.4c0,8.09,2.56,14.91,7.67,20.16h-21.87c-8.1,0-16.19-1.56-21.87-4.54v-49h-16.9v49c-6.11,2.98-13.35,4.54-22.01,4.54-8.09,0-16.18-1.56-21.87-4.54v-49h-16.9v49c-6.11,2.98-13.35,4.54-22.01,4.54h-21.58v-47.14c-7.39-4.12-19.17-7.81-31.1-7.81-23.29,0-38.77,14.06-38.77,36.21s16.19,36.21,40.75,36.21h50.83c.22,0,.43-.02,.65-.02,.08,0,.17,0,.24,0,10.72-.14,20.51-2.67,29.35-7.78,8.97,5.11,18.76,7.65,29.35,7.78,.08,0,.18,0,.27,0,.21,0,.42,.02,.63,.02h.28c.23,0,.45-.02,.67-.02,.07,0,.16,0,.22,0,10.72-.14,20.51-2.67,29.36-7.78,8.97,5.11,18.77,7.65,29.35,7.78,.07,0,.17,0,.25,0,.22,0,.43,.02,.65,.02h106.79v-35.08c0-20.31-5.54-35.22-16.47-44.73Zm-250.2,62.34h-14.63c-13.06,0-21.58-6.82-21.58-19.31s8.8-19.74,20.73-19.74c5.82,0,11.07,1.14,15.48,3.55v35.5Zm204.19,0c-9.52-1.28-14.63-8.23-14.63-18.03,0-9.23,6.25-15.34,14.63-15.34s14.63,6.11,14.63,15.34c0,10.08-4.97,16.76-14.63,18.03Z"/>
        <path class="cls-3" d="M1054.15,348.41c10.15,0,19.6,4.66,25.66,12.41l15.23-9.59c-9.45-12.41-24.53-20.02-41.03-20.02-27.92-.57-52.45,23.41-51.89,50.76-.56,27.36,23.97,51.33,51.89,50.76,16.5,0,31.59-7.61,41.03-20.02l-15.23-9.87c-6.35,7.9-15.51,12.69-25.66,12.69-18.47,0-32.71-15.09-32.71-33.56s14.24-33.56,32.71-33.56Z"/>
        <path class="cls-3" d="M1164.26,359.41c-21.86,0-39.06,15.93-39.06,36.66s17.2,36.66,39.06,36.66c21.86,.42,39.76-16.22,39.34-36.66,.42-20.45-17.48-37.08-39.34-36.66Zm0,58.66c-12.55,0-22.14-9.59-22.14-22s9.59-22,22.14-22,22.42,9.59,22.42,22-9.59,22-22.42,22Z"/>
        <path class="cls-3" d="M1326.84,373.37c9.02,0,14.52,5.78,14.52,16.07v41.88h17.2v-46.82c0-16.21-10.29-25.1-25.1-25.1-10.86,0-20.02,3.1-29.75,11.42-3.95-7.47-11.7-11.42-21.15-11.42s-18.89,3.67-27.35,11v-9.59h-17.2v70.5h17.2v-50.34c6.77-5.5,12.55-7.61,19.88-7.61,9.02,0,14.67,5.78,14.67,16.07v41.88h17.06v-40.47c0-3.52-.28-6.91-.99-9.87,6.21-5.08,13.26-7.61,21.01-7.61Z"/>
        <path class="cls-3" d="M1490.53,359.41c-10.86,0-20.03,3.1-29.75,11.42-3.95-7.47-11.7-11.42-21.15-11.42s-18.89,3.67-27.35,11v-9.59h-17.2v70.5h17.2v-50.34c6.77-5.5,12.55-7.61,19.88-7.61,9.02,0,14.67,5.78,14.67,16.07v41.88h17.06v-40.47c0-3.52-.28-6.91-.99-9.87,6.21-5.08,13.26-7.61,21.01-7.61,9.02,0,14.52,5.78,14.52,16.07v41.88h17.2v-46.82c0-16.21-10.3-25.1-25.1-25.1Z"/>
        <path class="cls-3" d="M1605.87,409.89c-6.35,5.64-14.38,8.74-21.86,8.74-10.15,0-15.79-5.78-15.79-15.93v-41.88h-17.06v46.81c0,15.65,9.73,25.1,25.66,25.1,10.15,0,20.45-3.67,29.05-10.43v9.02h17.2v-70.5h-17.2v49.07Z"/>
        <path class="cls-3" d="M1715.7,389.44v41.88h17.06v-46.82c0-15.65-9.73-25.1-25.66-25.1-10.01,0-20.45,3.67-29.05,10.29v-8.88h-17.2v70.5h17.2v-49.07c6.35-5.64,14.38-8.88,21.86-8.88,10.15,0,15.79,5.92,15.79,16.07Z"/>
        <rect class="cls-3" x="1770.69" y="360.82" width="17.06" height="70.5"/>
        <path class="cls-3" d="M1779.14,334.16c-5.22,0-9.44,3.81-9.44,8.75s4.23,8.74,9.44,8.74,9.31-3.81,9.31-8.74c0-4.66-4.23-8.75-9.31-8.75Z"/>
        <path class="cls-3" d="M1861.63,418.06c-11.99,0-21.43-9.73-21.43-22s9.45-22,21.43-22c7.05,0,12.69,2.4,17.06,7.33l13.11-7.33c-7.19-9.16-18.47-14.66-30.46-14.66-20.3-.42-38.35,16.78-37.93,36.66-.42,19.88,17.63,37.09,37.93,36.66,12.41,0,23.69-5.64,31.02-15.23l-13.26-7.33c-4.09,5.08-10.15,7.9-17.48,7.9Z"/>
        <path class="cls-3" d="M1960.89,359.41c-11.42,0-22.84,3.1-32.57,9.17l5.5,11.98c7.47-4.93,15.23-7.47,23.12-7.47,11.14,0,16.92,4.93,16.92,14.38v.84h-23.97c-16.92,0-27.5,8.32-27.5,22s10.15,22.42,26.37,22.42c9.45,0,17.77-3.1,25.1-9.17v7.76h17.06v-45.55c0-16.78-10.86-26.37-30.03-26.37Zm12.97,54.85c-6.2,3.95-12.83,5.92-20.02,5.92-9.16,0-14.52-3.95-14.52-10.86s5.5-10.86,14.95-10.86h19.6v15.79Z"/>
        <path class="cls-3" d="M2072,415.67c-3.38,1.69-7.05,2.54-10.86,2.54-7.19,0-12.27-4.37-12.27-12.69v-31.02h20.02v-13.68h-20.02v-19.6h-17.06v19.6h-11.14v13.68h11.14v33.7c0,15.65,10.01,24.54,23.97,24.54,6.2,0,12.41-1.69,18.47-4.93l-2.26-12.13Z"/>
        <rect class="cls-3" x="2107.95" y="360.82" width="17.06" height="70.5"/>
        <path class="cls-3" d="M2116.41,334.16c-5.22,0-9.44,3.81-9.44,8.75s4.23,8.74,9.44,8.74,9.31-3.81,9.31-8.74c0-4.66-4.23-8.75-9.31-8.75Z"/>
        <path class="cls-3" d="M2239.08,396.07c.42-20.45-17.48-37.08-39.34-36.66-21.86,0-39.06,15.93-39.06,36.66s17.2,36.66,39.06,36.66c21.86,.42,39.76-16.22,39.34-36.66Zm-61.48,0c0-12.41,9.59-22,22.14-22s22.42,9.59,22.42,22-9.59,22-22.42,22-22.14-9.59-22.14-22Z"/>
        <path class="cls-3" d="M2328.47,389.44v41.88h17.06v-46.82c0-15.65-9.73-25.1-25.66-25.1-10.01,0-20.45,3.67-29.05,10.29v-8.88h-17.2v70.5h17.2v-49.07c6.35-5.64,14.38-8.88,21.86-8.88,10.15,0,15.79,5.92,15.79,16.07Z"/>
        <path class="cls-3" d="M2416.17,389.86l-7.9-2.11c-9.73-2.68-12.13-4.23-12.13-8.32,0-5.22,3.81-7.76,11.56-7.76s16.64,2.54,23.55,6.63l5.78-11.14c-7.9-4.93-18.61-7.76-28.9-7.76-17.63,0-28.34,8.04-28.34,21.57,0,5.08,1.69,9.02,5.08,11.99,3.52,2.96,9.59,5.64,18.19,8.04l8.88,2.4c8.88,2.68,11,4.23,11,8.32,0,5.78-4.23,8.74-12.83,8.74-9.17,0-19.18-2.96-27.49-8.03l-5.92,10.86c9.02,6.07,20.87,9.45,32.86,9.45,18.61,0,29.47-8.18,29.47-22.28,0-10.58-6.35-16.07-22.84-20.59Z"/>
        <path class="cls-3" d="M2472.42,451.34l13.39-22.7c.99-1.55,1.41-3.24,1.41-4.79,0-4.93-4.37-8.88-9.59-8.88s-9.45,3.95-9.45,8.88c0,3.52,1.97,6.49,5.36,8.04l-6.35,17.06,5.22,2.4Z"/>
        <path class="cls-3" d="M2621.6,373.79l-10.72-2.96c-15.65-4.23-18.47-6.49-18.47-11.7,0-8.04,7.19-11.99,17.77-11.99,10.01,0,22.99,3.67,33.56,9.31l8.04-14.67c-11.14-6.62-25.95-10.57-40.19-10.57-11.56,0-21.01,2.54-28.2,7.47-7.19,4.93-10.85,12.12-10.85,21.71,.56,16.08,9.87,21.86,33.28,27.78l11.14,2.82c14.1,3.53,17.91,5.5,17.91,12.27,0,9.17-7.9,13.39-19.88,13.39s-26.51-3.95-38.21-10.86l-8.46,13.82c12.41,8.46,28.9,13.11,45.12,13.11,24.96,0,40.75-10.72,40.75-30.46-.56-17.06-10.71-22.42-32.57-28.48Z"/>
        <path class="cls-3" d="M2729.46,359.41c-9.59,0-17.62,3.52-23.12,9.59v-8.18h-17.2v98h17.2v-35.82c5.5,6.07,13.54,9.73,23.12,9.73,18.9,.42,34.41-16.5,33.98-36.66,.42-20.16-15.09-37.08-33.98-36.66Zm11.28,52.45c-3.81,4.09-8.74,6.2-14.8,6.2-8.46,0-15.51-3.52-19.6-9.59v-24.82c4.09-6.06,11.14-9.59,19.6-9.59,6.06,0,11,2.12,14.8,6.35,3.81,4.09,5.78,9.31,5.78,15.65s-1.98,11.56-5.78,15.79Z"/>
        <path class="cls-3" d="M2833.09,359.41c-11.42,0-22.84,3.1-32.57,9.17l5.5,11.98c7.47-4.93,15.23-7.47,23.12-7.47,11.14,0,16.92,4.93,16.92,14.38v.84h-23.97c-16.92,0-27.5,8.32-27.5,22s10.15,22.42,26.37,22.42c9.45,0,17.77-3.1,25.1-9.17v7.76h17.06v-45.55c0-16.78-10.86-26.37-30.03-26.37Zm12.97,54.85c-6.2,3.95-12.83,5.92-20.02,5.92-9.16,0-14.52-3.95-14.52-10.86s5.5-10.86,14.95-10.86h19.6v15.79Z"/>
        <path class="cls-3" d="M2965.63,417.5l-13.26-7.33c-4.09,5.08-10.15,7.9-17.48,7.9-11.99,0-21.43-9.73-21.43-22s9.45-22,21.43-22c7.05,0,12.69,2.4,17.06,7.33l13.11-7.33c-7.19-9.16-18.47-14.66-30.46-14.66-20.3-.42-38.35,16.78-37.93,36.66-.42,19.88,17.63,37.09,37.93,36.66,12.41,0,23.69-5.64,31.02-15.23Z"/>
        <path class="cls-3" d="M3053.04,411.72c-5.22,4.93-12.27,7.47-21.15,7.47-11.42,0-19.04-6.62-20.87-17.77h56.97v-5.36c0-21.01-15.79-36.66-37.08-36.66s-37.09,16.21-37.09,36.52,15.93,36.8,37.51,36.8c11.85,0,22.84-4.37,31.16-12.13l-9.45-8.88Zm-22-39.06c5.78,0,10.72,1.69,14.52,5.21,3.81,3.39,5.78,7.62,5.78,12.84h-40.33c1.55-11.28,8.88-18.05,20.02-18.05Z"/>
        <path class="cls-3" d="M3229.85,382.81c-2.96,6.91-6.35,12.83-10.29,18.05l-19.32-20.45c15.65-7.89,21.71-14.66,21.71-26.37,0-13.11-11.14-22.84-26.23-22.84-16.08,0-28.48,11-28.48,25.24,0,6.35,2.54,11.7,8.74,18.61l1.55,1.69c-18.05,9.02-24.96,17.35-24.96,29.19,0,16.78,13.68,26.79,35.53,26.79,11.98,0,22.28-3.25,30.88-9.87l8.88,9.87,12.12-10.29-10.15-10.72c4.66-6.06,8.74-13.82,12.55-23.27l-12.55-5.64Zm-34.4-38.92c7.19,0,11.99,4.09,11.99,10.43s-2.82,10.01-16.5,16.36l-2.4-2.54c-3.52-3.81-6.2-8.88-6.2-12.97,0-6.35,5.64-11.28,13.11-11.28Zm-6.77,74.73c-11.28,0-18.47-5.36-18.47-14.24,0-6.35,4.09-11,16.5-17.35l22.28,24.68c-6.35,4.66-13.11,6.91-20.3,6.91Z"/>
        <polygon class="cls-3" points="1002.11 537.36 1033.92 537.36 1033.92 620.57 1052.38 620.57 1052.38 537.36 1084.19 537.36 1084.19 521.17 1002.11 521.17 1002.11 537.36"/>
        <path class="cls-3" d="M1140.28,548.15c-21.44,0-37.35,16.33-37.35,36.78s16.05,37.07,37.77,37.07c11.93,0,23.01-4.4,31.38-12.21l-9.52-8.95c-5.25,4.97-12.35,7.53-21.3,7.53-11.5,0-19.17-6.67-21.02-17.89h57.37v-5.4c0-21.16-15.91-36.92-37.35-36.92Zm-20.02,31.52c1.56-11.36,8.95-18.18,20.16-18.18,5.82,0,10.79,1.71,14.63,5.25,3.83,3.41,5.82,7.67,5.82,12.92h-40.61Z"/>
        <path class="cls-3" d="M1247.2,607.22c-12.07,0-21.59-9.8-21.59-22.15s9.52-22.15,21.59-22.15c7.1,0,12.78,2.42,17.18,7.39l13.21-7.39c-7.24-9.23-18.6-14.77-30.67-14.77-20.45-.43-38.62,16.9-38.2,36.92-.42,20.02,17.75,37.35,38.2,36.92,12.5,0,23.86-5.68,31.24-15.34l-13.35-7.39c-4.12,5.11-10.22,7.95-17.61,7.95Z"/>
        <path class="cls-3" d="M1358.81,548.15c-10.08,0-20.59,3.69-29.25,10.37v-37.35h-17.33v99.4h17.33v-49.42c6.39-5.68,14.48-8.95,22.01-8.95,10.22,0,15.9,5.96,15.9,16.19v42.18h17.18v-47.15c0-15.76-9.8-25.27-25.84-25.27Z"/>
        <path class="cls-3" d="M1468.15,548.15c-10.08,0-20.59,3.69-29.25,10.37v-8.95h-17.33v71h17.33v-49.42c6.39-5.68,14.48-8.95,22.01-8.95,10.22,0,15.9,5.96,15.9,16.19v42.18h17.18v-47.15c0-15.76-9.8-25.27-25.84-25.27Z"/>
        <path class="cls-3" d="M1567.12,548.15c-22.01,0-39.34,16.04-39.34,36.92s17.33,36.92,39.34,36.92c22.01,.43,40.05-16.33,39.62-36.92,.42-20.59-17.61-37.35-39.62-36.92Zm0,59.07c-12.64,0-22.3-9.65-22.3-22.15s9.66-22.15,22.3-22.15,22.58,9.66,22.58,22.15-9.66,22.15-22.58,22.15Z"/>
        <rect class="cls-3" x="1641.52" y="521.17" width="17.33" height="99.4"/>
        <path class="cls-3" d="M1733.12,548.15c-22.01,0-39.34,16.04-39.34,36.92s17.33,36.92,39.34,36.92c22.01,.43,40.05-16.33,39.62-36.92,.42-20.59-17.61-37.35-39.62-36.92Zm0,59.07c-12.64,0-22.3-9.65-22.3-22.15s9.66-22.15,22.3-22.15,22.58,9.66,22.58,22.15-9.66,22.15-22.58,22.15Z"/>
        <path class="cls-3" d="M1861.48,557.81c-5.54-6.11-13.63-9.65-23.29-9.65-19.17-.43-34.51,16.47-34.22,36.78-.42,20.31,15.2,37.21,34.22,36.78,9.66,0,17.75-3.55,23.29-9.65v3.12c0,14.34-8.8,21.3-22.01,21.3-10.22,0-19.45-2.56-27.83-7.81l-5.54,12.07c10.08,6.11,22.01,9.23,35.78,9.23,10.94,0,19.88-2.84,26.56-8.66,6.81-5.82,10.22-14.49,10.22-26.13v-65.61h-17.18v8.23Zm0,39.62c-4.12,6.11-11.22,9.65-19.74,9.65-6.11,0-11.07-2.13-14.91-6.25-3.83-4.26-5.82-9.51-5.82-15.91,0-12.5,8.8-22.15,20.73-22.15,8.52,0,15.62,3.55,19.74,9.65v24.99Z"/>
        <path class="cls-3" d="M1948.81,601.97l-21.02-52.4h-18.18l31.53,73.27-1.14,2.27c-4.4,8.09-8.52,11.36-15.2,11.36-3.55,0-7.38-.85-11.64-2.56l-4.97,11.93c6.96,2.56,13.35,3.83,18.89,3.83,13.06,0,22.01-6.96,28.12-22.15l31.38-77.96h-17.9l-19.88,52.4Z"/>
        <path class="cls-3" d="M2120.77,537.07c10.22,0,19.74,4.69,25.84,12.5l15.34-9.66c-9.51-12.5-24.71-20.16-41.32-20.16-28.12-.57-52.83,23.57-52.26,51.12-.57,27.55,24.14,51.69,52.26,51.12,16.62,0,31.81-7.67,41.32-20.17l-15.34-9.94c-6.39,7.95-15.62,12.78-25.84,12.78-18.6,0-32.94-15.19-32.94-33.8s14.34-33.8,32.94-33.8Z"/>
        <path class="cls-3" d="M2231.66,548.15c-22.01,0-39.34,16.04-39.34,36.92s17.33,36.92,39.34,36.92c22.01,.43,40.05-16.33,39.62-36.92,.42-20.59-17.61-37.35-39.62-36.92Zm0,59.07c-12.64,0-22.3-9.65-22.3-22.15s9.66-22.15,22.3-22.15,22.58,9.66,22.58,22.15-9.66,22.15-22.58,22.15Z"/>
        <path class="cls-3" d="M2402.06,548.15c-10.94,0-20.17,3.12-29.96,11.5-3.98-7.53-11.79-11.5-21.3-11.5s-19.03,3.69-27.55,11.07v-9.65h-17.33v71h17.33v-50.7c6.81-5.54,12.64-7.67,20.02-7.67,9.09,0,14.77,5.82,14.77,16.19v42.18h17.18v-40.76c0-3.55-.28-6.96-1-9.94,6.25-5.11,13.35-7.67,21.16-7.67,9.09,0,14.63,5.82,14.63,16.19v42.18h17.33v-47.15c0-16.33-10.37-25.27-25.28-25.27Z"/>
        <path class="cls-3" d="M2560.25,548.15c-10.94,0-20.16,3.12-29.96,11.5-3.98-7.53-11.79-11.5-21.3-11.5s-19.03,3.69-27.55,11.07v-9.65h-17.33v71h17.33v-50.7c6.81-5.54,12.64-7.67,20.02-7.67,9.09,0,14.77,5.82,14.77,16.19v42.18h17.18v-40.76c0-3.55-.28-6.96-1-9.94,6.25-5.11,13.35-7.67,21.16-7.67,9.09,0,14.63,5.82,14.63,16.19v42.18h17.32v-47.15c0-16.33-10.37-25.27-25.28-25.27Z"/>
        <rect class="cls-3" x="2623.72" y="549.57" width="17.18" height="71"/>
        <path class="cls-3" d="M2632.24,522.73c-5.25,0-9.51,3.83-9.51,8.81s4.26,8.8,9.51,8.8,9.37-3.83,9.37-8.8c0-4.69-4.26-8.81-9.37-8.81Z"/>
        <path class="cls-3" d="M2714.17,578.82l-7.95-2.13c-9.8-2.7-12.21-4.26-12.21-8.38,0-5.25,3.83-7.81,11.64-7.81s16.76,2.56,23.72,6.67l5.82-11.22c-7.95-4.97-18.74-7.81-29.11-7.81-17.75,0-28.54,8.1-28.54,21.73,0,5.11,1.7,9.09,5.11,12.07,3.55,2.98,9.65,5.68,18.32,8.1l8.95,2.41c8.95,2.7,11.07,4.26,11.07,8.38,0,5.82-4.26,8.8-12.92,8.8-9.23,0-19.31-2.98-27.69-8.09l-5.97,10.93c9.09,6.11,21.02,9.52,33.09,9.52,18.74,0,29.68-8.24,29.68-22.44,0-10.65-6.39-16.19-23-20.73Z"/>
        <path class="cls-3" d="M2805.9,578.82l-7.95-2.13c-9.8-2.7-12.21-4.26-12.21-8.38,0-5.25,3.83-7.81,11.64-7.81s16.76,2.56,23.72,6.67l5.82-11.22c-7.95-4.97-18.74-7.81-29.11-7.81-17.75,0-28.54,8.1-28.54,21.73,0,5.11,1.7,9.09,5.11,12.07,3.55,2.98,9.65,5.68,18.32,8.1l8.95,2.41c8.95,2.7,11.07,4.26,11.07,8.38,0,5.82-4.26,8.8-12.92,8.8-9.23,0-19.31-2.98-27.69-8.09l-5.97,10.93c9.09,6.11,21.02,9.52,33.09,9.52,18.74,0,29.68-8.24,29.68-22.44,0-10.65-6.39-16.19-23-20.73Z"/>
        <path class="cls-3" d="M2873.2,522.73c-5.25,0-9.51,3.83-9.51,8.81s4.26,8.8,9.51,8.8,9.37-3.83,9.37-8.8c0-4.69-4.26-8.81-9.37-8.81Z"/>
        <rect class="cls-3" x="2864.68" y="549.57" width="17.18" height="71"/>
        <path class="cls-3" d="M2957.12,548.15c-22.01,0-39.34,16.04-39.34,36.92s17.33,36.92,39.34,36.92c22.01,.43,40.05-16.33,39.62-36.92,.42-20.59-17.61-37.35-39.62-36.92Zm0,59.07c-12.64,0-22.3-9.65-22.3-22.15s9.66-22.15,22.3-22.15,22.58,9.66,22.58,22.15-9.66,22.15-22.58,22.15Z"/>
        <path class="cls-3" d="M3078.11,548.15c-10.08,0-20.59,3.69-29.25,10.37v-8.95h-17.33v71h17.33v-49.42c6.39-5.68,14.48-8.95,22.01-8.95,10.22,0,15.9,5.96,15.9,16.19v42.18h17.18v-47.15c0-15.76-9.8-25.27-25.84-25.27Z"/>
      </g>
      <rect class="cls-3" x="843.83" width="10" height="750.08"/>
      <g>
        <path class="cls-3" d="M308.19,410.44c-9.08,9.08-21.61,14.69-35.46,14.69-27.7,0-50.15-22.45-50.15-50.15s22.45-50.15,50.15-50.15c13.85,0,26.39,5.61,35.46,14.69l35.47-35.47c-18.15-18.15-43.23-29.38-70.93-29.38-55.4,0-100.31,44.91-100.31,100.31s44.91,100.31,100.31,100.31c27.7,0,52.78-11.23,70.93-29.38l-35.47-35.47Z"/>
        <polygon class="cls-3" points="695.54 275.53 550.14 275.53 550.14 325.68 626.53 325.68 597.77 342.13 597.77 475 647.92 475 647.92 325.68 695.54 325.68 695.54 275.53"/>
        <g>
          <path class="cls-1" d="M37.51,252.91l-3.41-1.57c-.78,1.58-1.55,3.17-2.3,4.76l3.12,1.59c.85-1.61,1.71-3.2,2.58-4.79Z"/>
          <path class="cls-1" d="M36.04,206.97l-5.19-3.37c-.79,1.17-1.57,2.33-2.34,3.51l4.9,3.32c.85-1.17,1.75-2.3,2.62-3.45Z"/>
          <path class="cls-1" d="M35.05,230.77l-3.13-1.72c-.77,1.33-1.55,2.66-2.3,4l2.86,1.69c.84-1.33,1.7-2.65,2.57-3.97Z"/>
          <path class="cls-1" d="M46.87,237.27l-4-2.2c-.84,1.43-1.68,2.87-2.49,4.32l3.77,2.22c.9-1.45,1.79-2.91,2.72-4.34Z"/>
          <path class="cls-1" d="M40.9,275.21l-2.11-.8c-.59,1.53-1.19,3.05-1.76,4.6l1.76,.77c.69-1.53,1.39-3.06,2.11-4.57Z"/>
          <path class="cls-1" d="M40.48,215.2l3.72,2.52c.92-1.22,1.86-2.42,2.8-3.62l-3.97-2.58c-.85,1.23-1.72,2.44-2.55,3.68Z"/>
          <path class="cls-1" d="M19.33,222.12c-.69,1.21-1.38,2.44-2.05,3.66l4.19,2.47c.76-1.23,1.55-2.45,2.33-3.67l-4.46-2.45Z"/>
          <path class="cls-1" d="M49.54,190.38l-5.83-4.45c-1.17,1.48-2.33,2.97-3.46,4.48l5.56,4.31c.62-.73,1.2-1.49,1.83-2.21,.62-.72,1.28-1.41,1.91-2.12Z"/>
          <path class="cls-1" d="M28.62,270.57l-2.59-.98c-.52,1.31-1.03,2.62-1.53,3.95l2.31,1.01c.59-1.34,1.2-2.65,1.81-3.98Z"/>
          <path class="cls-1" d="M79.98,160.66l-6.77-7.03c-2.09,1.98-4.18,3.94-6.21,5.98l6.54,6.6c2.12-1.88,4.26-3.74,6.43-5.56Z"/>
          <path class="cls-1" d="M66.7,210.92c1.29-1.49,2.61-2.97,3.93-4.43l-5.04-3.85c-1.24,1.51-2.49,3.01-3.7,4.55l4.8,3.72Z"/>
          <path class="cls-1" d="M69.35,188.95c1.68-1.66,3.39-3.28,5.12-4.89l-5.41-4.83c-1.62,1.72-3.18,3.48-4.75,5.24l5.05,4.47Z"/>
          <path class="cls-1" d="M61.61,229.51l4.82,3.26c1.01-1.36,2.03-2.7,3.06-4.04l-5.14-3.35c-.92,1.36-1.84,2.73-2.74,4.12Z"/>
          <path class="cls-1" d="M58.18,221.37l-4.58-2.98c-.9,1.29-1.82,2.57-2.69,3.87l4.36,2.95c.96-1.29,1.94-2.57,2.92-3.84Z"/>
          <path class="cls-1" d="M55.44,194.89c-.66,.81-1.34,1.6-1.99,2.42-.55,.69-1.05,1.41-1.59,2.11l4.41,3.42c1.28-1.47,2.59-2.9,3.9-4.33l-4.73-3.61Z"/>
          <path class="cls-1" d="M25.09,247.21l-2.34-1.08c-.7,1.43-1.35,2.89-2.03,4.34l2.02,1.03c.76-1.44,1.56-2.86,2.35-4.29Z"/>
          <path class="cls-1" d="M53.15,174.6l6.06,5.36c1.65-1.7,3.3-3.41,4.99-5.06l-6.36-5.67c-1.6,1.76-3.13,3.58-4.69,5.37Z"/>
          <path class="cls-1" d="M58.69,243.77l-4.3-2.37c-.88,1.55-1.73,3.14-2.57,4.72l3.87,2.28c.99-1.55,1.99-3.1,3.01-4.63Z"/>
          <path class="cls-1" d="M49.63,258.48l-3.32-1.52c-.83,1.75-1.66,3.51-2.45,5.29l2.87,1.46c.95-1.75,1.91-3.5,2.9-5.23Z"/>
          <path class="cls-1" d="M101.36,182.85c-2,1.8-3.96,3.63-5.89,5.49l5.64,5.69c1.91-1.84,3.84-3.65,5.81-5.42l-5.56-5.76Z"/>
          <path class="cls-1" d="M108.44,161.79c-2.52,1.88-5,3.81-7.45,5.79l12.98,14.92c2.29-1.92,4.61-3.79,6.97-5.63l-12.5-15.07Z"/>
          <path class="cls-1" d="M15.76,265.71l-1.41-.53c-.44,1.12-.85,2.24-1.28,3.37l1.18,.52c.49-1.12,1-2.24,1.51-3.35Z"/>
          <path class="cls-1" d="M107.11,125.84c-3.18,2.23-6.3,4.53-9.38,6.88l7.2,9.43c3.13-2.06,6.31-4.06,9.53-6l-7.35-10.31Z"/>
          <path class="cls-1" d="M87.88,196.02c-1.6,1.7-3.17,3.42-4.72,5.16l5.9,5.22c.18-.18,.35-.36,.52-.54,1.39-1.53,2.81-3.04,4.24-4.54l-5.95-5.3Z"/>
          <path class="cls-1" d="M125.59,113.92c-3.77,2.25-7.48,4.58-11.14,7l27.61,41.19c3.13-1.96,6.31-3.84,9.53-5.66l-25.99-42.53Z"/>
          <path class="cls-1" d="M274.24,74.32c-44.21,0-86.17,9.59-123.94,26.77l22.79,44.54c30.93-13.71,65.15-21.35,101.16-21.35,30.39,0,59.52,5.43,86.46,15.37l17.29-46.89c-32.33-11.93-67.28-18.44-103.75-18.44Z"/>
          <path class="cls-1" d="M145,103.56c-4.43,2.12-8.79,4.34-13.09,6.67l25.3,43.14c3.59-1.91,7.23-3.73,10.92-5.46l-23.13-44.34Z"/>
          <path class="cls-1" d="M116.63,139.19c-3.09,2.05-6.13,4.15-9.13,6.32l20.12,26.32c2.7-1.96,5.44-3.85,8.22-5.7l-19.21-26.94Z"/>
          <path class="cls-1" d="M2.79,264.05c.4-.93,.78-1.87,1.19-2.79l-2.95-1.11c-.35,.89-.69,1.79-1.04,2.68l2.79,1.22Z"/>
          <path class="cls-1" d="M78.77,187.9c-1.63,1.68-3.25,3.38-4.83,5.11l5.21,4.62c1.66-1.65,3.35-3.28,5.06-4.87l-5.44-4.85Z"/>
          <path class="cls-1" d="M71.84,214.91l5.47,4.24c1.31-1.52,2.63-3.03,3.97-4.52l-5.78-4.41c-1.24,1.55-2.47,3.11-3.67,4.69Z"/>
          <path class="cls-1" d="M8,243.99l3.51,1.79c.68-1.29,1.33-2.6,2.02-3.88l-3.73-1.72c-.61,1.26-1.21,2.54-1.8,3.81Z"/>
          <path class="cls-1" d="M99.75,151.31c-2.57,2-5.11,4.03-7.59,6.11l6.1,7.01c2.58-1.87,5.19-3.7,7.84-5.47l-6.35-7.65Z"/>
          <path class="cls-1" d="M83.85,164.68c-2.07,1.89-4.1,3.81-6.12,5.77l5.63,5.68c2.12-1.8,4.27-3.55,6.44-5.27l-5.96-6.18Z"/>
          <path class="cls-1" d="M98.82,180.21l-5.74-5.96c-2.06,1.81-4.09,3.65-6.09,5.53l5.54,5.59c2.07-1.75,4.17-3.47,6.3-5.16Z"/>
          <path class="cls-1" d="M96.77,147.73l-7.12-8.58c-2.61,2.14-5.18,4.32-7.72,6.54l6.87,7.9c2.61-2.01,5.28-3.95,7.96-5.86Z"/>
        </g>
        <g>
          <path class="cls-4" d="M451.07,614.09l-4.93-6.52c-1.97,1.36-3.92,2.74-5.92,4.05l5.13,6.82c1.93-1.43,3.84-2.88,5.73-4.35Z"/>
          <path class="cls-4" d="M441.97,602.07l-4.08-5.4c-1.99,1.31-3.99,2.59-6.01,3.85l4.38,5.83c1.93-1.38,3.82-2.84,5.72-4.28Z"/>
          <path class="cls-4" d="M453.54,558.19l-4.27-4.34c-1.24,1.12-2.53,2.18-3.79,3.28l4.62,4.53c1.16-1.14,2.31-2.29,3.45-3.46Z"/>
          <path class="cls-4" d="M428.36,595.84c1.94-1.35,3.87-2.72,5.78-4.13l-4.17-5.51c-1.97,1.31-3.96,2.58-5.97,3.83l4.36,5.81Z"/>
          <path class="cls-4" d="M434.38,626.18l-5.12-7.78c-2.48,1.46-4.99,2.88-7.51,4.26l5.3,8.29c2.47-1.56,4.92-3.14,7.34-4.77Z"/>
          <path class="cls-4" d="M466.84,600.93l-4.6-5.32c-.92,.73-1.81,1.5-2.73,2.22-.58,.45-1.18,.87-1.76,1.32l4.81,5.48c1.43-1.23,2.88-2.44,4.29-3.69Z"/>
          <path class="cls-4" d="M454.69,591.92c.84-.72,1.64-1.47,2.47-2.19l-3.65-4.23c-1.54,1.19-3.09,2.35-4.65,3.5l3.93,4.48c.63-.53,1.28-1.03,1.91-1.56Z"/>
          <path class="cls-4" d="M466.45,543.81l-3.66-3.28c-1.24,1.31-2.46,2.63-3.73,3.91l4.01,3.39c1.14-1.32,2.26-2.67,3.38-4.02Z"/>
          <path class="cls-4" d="M462.52,567.32l-3.57-3.62c-1.18,1.06-2.37,2.1-3.56,3.14l3.79,3.72c1.12-1.07,2.24-2.15,3.33-3.24Z"/>
          <path class="cls-4" d="M471.44,576.39l-3.16-3.21c-1.12,1-2.25,1.99-3.39,2.98l3.37,3.31c1.05-1.03,2.14-2.03,3.17-3.07Z"/>
          <path class="cls-4" d="M431.12,568.8l4.95,5.64c1.52-1.28,3.03-2.56,4.51-3.88l-4.73-5.47c-1.57,1.24-3.13,2.51-4.74,3.71Z"/>
          <path class="cls-4" d="M409.07,623.48l-4.64-8.15c-2.95,1.36-5.93,2.67-8.93,3.92l4.76,8.84c2.96-1.49,5.9-3.02,8.81-4.62Z"/>
          <path class="cls-4" d="M382.51,640.24l5.22,11.67c3.64-1.6,7.24-3.28,10.8-5.03l-5.24-10.74c-3.57,1.45-7.16,2.81-10.78,4.1Z"/>
          <path class="cls-4" d="M343.4,614.78c-4.02,1.2-8.08,2.32-12.19,3.32l14.07,48.49c4.91-1.24,9.78-2.59,14.59-4.06l-16.47-47.75Z"/>
          <path class="cls-4" d="M418.63,602.27l-4.33-6.56c-2.41,1.34-4.85,2.63-7.3,3.88l4.47,7c2.41-1.4,4.79-2.84,7.15-4.32Z"/>
          <path class="cls-4" d="M448.78,580.04l-3.91-4.52c-1.56,1.21-3.14,2.4-4.72,3.57l4.13,4.71c1.51-1.24,3.01-2.49,4.5-3.76Z"/>
          <path class="cls-4" d="M425.95,613.38l-4.44-6.74c-2.46,1.37-4.94,2.7-7.45,3.99l4.65,7.28c2.43-1.47,4.84-2.98,7.23-4.54Z"/>
          <path class="cls-4" d="M416.85,637.13l-5.24-9.19c-3.02,1.49-6.06,2.91-9.13,4.29l5.33,9.9c3.04-1.62,6.05-3.28,9.03-5Z"/>
          <path class="cls-4" d="M405.02,596.48c2.35-1.39,4.67-2.82,6.97-4.3l-4.53-6.88c-2.26,1.45-4.55,2.87-6.86,4.26l4.42,6.92Z"/>
          <path class="cls-4" d="M516.4,538.28l2.67,1.67c.47-.73,.91-1.49,1.38-2.22l-2.49-1.74c-.53,.76-1.03,1.54-1.56,2.29Z"/>
          <path class="cls-4" d="M506.53,557.77c.81-1.07,1.63-2.14,2.42-3.22l-3.08-2.44c-.88,1.09-1.74,2.19-2.63,3.27l3.29,2.39Z"/>
          <path class="cls-4" d="M421.03,586.08c1.92-1.36,3.81-2.76,5.69-4.18l-4.89-6.47c-.45,.31-.89,.65-1.34,.95,0,0,0,0,0,0-1.44,1.06-2.93,2.07-4.39,3.1l4.95,6.59Z"/>
          <path class="cls-4" d="M508.68,529.5l-1.06-.75c-.65,.93-1.32,1.86-1.99,2.78l1.28,.8c.6-.94,1.18-1.89,1.77-2.84Z"/>
          <path class="cls-4" d="M393.73,615.96c2.9-1.38,5.77-2.82,8.6-4.32l-9.91-17.4c-2.67,1.47-5.36,2.89-8.09,4.26l9.4,17.45Z"/>
          <path class="cls-4" d="M476.19,552.54l-3.06-2.74c-1.14,1.21-2.28,2.43-3.44,3.62l3.31,2.79c1.08-1.21,2.14-2.44,3.2-3.67Z"/>
          <path class="cls-4" d="M366.88,660.19c4.25-1.51,8.47-3.11,12.65-4.81l-19.15-46.31c-3.56,1.34-7.16,2.59-10.79,3.78l17.29,47.34Z"/>
          <path class="cls-4" d="M380.99,636.82c3.51-1.43,7-2.93,10.45-4.51l-14.71-30.13c-3.1,1.43-6.24,2.8-9.41,4.11l13.67,30.53Z"/>
          <path class="cls-4" d="M325.85,619.31c-17.61,3.89-35.89,5.99-54.67,5.99-48.49,0-93.78-13.68-132.22-37.39l-26.45,42.97c46.14,28.45,100.48,44.87,158.67,44.87,23.52,0,46.4-2.71,68.37-7.78l-13.7-48.66Z"/>
          <path class="cls-4" d="M485.59,560.96l-2.48-2.22c-1.06,1.11-2.12,2.22-3.2,3.31l2.72,2.3c.99-1.13,1.99-2.24,2.96-3.38Z"/>
          <path class="cls-4" d="M484.76,541.93c1.04-1.35,2.06-2.71,3.07-4.09l-2.48-1.96c-1.11,1.36-2.23,2.7-3.36,4.03l2.77,2.01Z"/>
          <path class="cls-4" d="M481.61,586.73l-4.11-4.18c-1.04,.96-2.13,1.88-3.19,2.83l4.39,4.3c.98-.98,1.95-1.96,2.91-2.95Z"/>
          <path class="cls-4" d="M477.43,529.61l-2.84-2.25c-1.24,1.49-2.54,2.93-3.81,4.39l3.31,2.41c1.13-1.5,2.24-3.02,3.34-4.55Z"/>
          <path class="cls-4" d="M498.37,522.28l-1.76-1.23c-.79,1.12-1.6,2.22-2.4,3.32l2.03,1.27c.72-1.12,1.44-2.23,2.14-3.36Z"/>
          <path class="cls-4" d="M489.8,570.4l3.9,3.29c.89-1.03,1.75-2.08,2.62-3.11l-3.6-3.23c-.96,1.03-1.94,2.04-2.92,3.05Z"/>
          <path class="cls-4" d="M494.95,549.34c.93-1.22,1.82-2.47,2.73-3.71l-1.78-1.41c-.99,1.22-2,2.42-3.02,3.61l2.07,1.51Z"/>
          <path class="cls-4" d="M485.4,513.21c-.93,1.3-1.82,2.63-2.78,3.91l2.27,1.42c.84-1.31,1.67-2.62,2.49-3.94l-1.98-1.38Z"/>
        </g>
        <g>
          <path class="cls-5" d="M171.44,488.89c-1.73-1.38-3.43-2.8-5.1-4.25l-5.04,5.03c1.59,1.69,3.23,3.32,4.89,4.91l5.25-5.69Z"/>
          <path class="cls-5" d="M155.93,474.67l-4.29,3.55c1.43,1.89,2.9,3.72,4.41,5.52l4.75-4.17c-1.66-1.59-3.28-3.23-4.87-4.9Z"/>
          <path class="cls-5" d="M175.69,508.42c-2.03-1.22-4.03-2.51-6-3.84l-4.55,5.52c1.92,1.6,3.86,3.16,5.85,4.66l4.7-6.35Z"/>
          <path class="cls-5" d="M138.97,476.39c-1.33-1.63-2.65-3.29-3.93-4.99l-2.07,1.42c1.13,1.82,2.29,3.61,3.48,5.37l2.52-1.8Z"/>
          <path class="cls-5" d="M162.07,499.04c-1.89-1.48-3.76-2.99-5.58-4.57l-3.88,3.87c1.71,1.8,3.45,3.57,5.24,5.27l4.22-4.57Z"/>
          <path class="cls-5" d="M146.81,491.85l3.5-3.08c-1.74-1.69-3.45-3.42-5.11-5.22l-3.05,2.52c1.51,1.97,3.07,3.89,4.66,5.77Z"/>
          <path class="cls-5" d="M353.69,504.16c-24.14,15.3-52.91,23.88-83.62,23.17-9.26-.22-18.29-1.28-27.05-3.1l-10.78,48.78c11.86,2.49,24.11,3.98,36.67,4.27,40.95,.95,79.32-10.49,111.5-30.89l-26.72-42.23Z"/>
          <path class="cls-5" d="M114.44,485.58l-2.94,2.02c1.23,1.91,2.5,3.8,3.79,5.68l3.24-2.31c-1.39-1.77-2.76-3.56-4.09-5.39Z"/>
          <path class="cls-5" d="M228.64,520.5l-14.87,47.35c3.37,1.16,6.77,2.24,10.19,3.22,1.24,.32,2.48,.64,3.73,.93l11.16-48.69c-3.45-.82-6.86-1.75-10.21-2.81Z"/>
          <path class="cls-5" d="M125.74,499.66l-3.58,2.96c1.68,2.14,3.4,4.25,5.17,6.32l3.88-3.41c-1.87-1.92-3.69-3.88-5.47-5.88Z"/>
          <path class="cls-5" d="M172.95,500.63c1.75,1.46,3.54,2.88,5.37,4.25l5.34-7.21c-1.79-1.16-3.56-2.35-5.31-3.59l-5.39,6.54Z"/>
          <path class="cls-5" d="M185.41,524.33l4.85-8.29c-2.47-1.11-4.89-2.3-7.27-3.54l-4.89,7.29c2.39,1.59,4.83,3.1,7.32,4.54Z"/>
          <path class="cls-5" d="M128.75,483.68c-1.37-1.7-2.71-3.43-4.01-5.19l-2.01,1.39c1.18,1.86,2.4,3.69,3.65,5.5l2.37-1.69Z"/>
          <path class="cls-5" d="M150.25,468.34c-1.32-1.56-2.62-3.14-3.88-4.75l-3.16,2.17c1.08,1.78,2.19,3.52,3.32,5.23l3.71-2.65Z"/>
          <path class="cls-5" d="M193.96,547.6c-3.39-1.35-6.75-2.8-10.05-4.36l-4.75,8.85c3.37,1.94,6.78,3.82,10.27,5.56l4.53-10.06Z"/>
          <path class="cls-5" d="M212.16,553.72c-3.92-1.09-7.81-2.28-11.64-3.64l-4.47,10.7c3.97,1.81,7.99,3.51,12.08,5.06l4.04-12.12Z"/>
          <path class="cls-5" d="M199.85,534.53c-3.2-1.09-6.32-2.27-9.36-3.55l-4.49,8.37c3.11,1.72,6.28,3.33,9.5,4.85l4.36-9.67Z"/>
          <path class="cls-5" d="M223.77,518.88c-2.97-1.04-5.9-2.16-8.77-3.38l-13.2,31.55c3.66,1.56,7.39,2.97,11.17,4.27l10.8-32.44Z"/>
          <path class="cls-5" d="M184.97,509.53c2.18,1.43,4.4,2.81,6.68,4.12l4.55-7.77c-2.08-1.26-4.13-2.57-6.15-3.93l-5.08,7.58Z"/>
          <path class="cls-5" d="M140.82,497.11c-1.81-1.8-3.58-3.65-5.3-5.54l-2.88,2.38c1.6,2.04,3.24,4.04,4.93,6.01l3.25-2.86Z"/>
          <path class="cls-5" d="M192.09,527.99c2.89,1.48,5.84,2.86,8.84,4.15l8.61-19.1c-2.51-1.19-4.97-2.45-7.4-3.77l-10.05,18.72Z"/>
          <path class="cls-5" d="M160.02,529.58c-1.13-.76-2.27-1.5-3.38-2.28-1.2-.85-2.35-1.74-3.52-2.62l-4.62,5.6c2.23,1.93,4.51,3.81,6.83,5.64l4.69-6.34Z"/>
          <path class="cls-5" d="M153.39,508.45c-2.01-1.62-3.96-3.3-5.89-5.01l-3.56,3.55c1.83,1.91,3.7,3.78,5.62,5.61l3.82-4.15Z"/>
          <path class="cls-5" d="M183.4,527.76c-2.65-1.29-5.28-2.66-7.88-4.14l-4.37,6.52c2.58,1.78,5.19,3.5,7.85,5.14l4.4-7.52Z"/>
          <path class="cls-5" d="M144.6,517.97c-2.11-1.77-4.17-3.59-6.2-5.45l-4.14,4.14c1.95,2.06,3.94,4.07,5.98,6.05l4.36-4.73Z"/>
          <path class="cls-5" d="M176.51,539.53c-2.85-1.51-5.66-3.13-8.44-4.8l-4.8,7.16c2.79,1.98,5.62,3.9,8.51,5.74l4.74-8.1Z"/>
          <path class="cls-5" d="M163.66,524.66l4.23-5.71c-2.13-1.39-4.28-2.86-6.42-4.4l-4.12,5c1.05,.89,2.08,1.79,3.15,2.66,1.04,.84,2.12,1.63,3.17,2.45Z"/>
        </g>
        <g>
          <path class="cls-2" d="M247.81,210.33l-.51-4.01c-2.64,.27-5.28,.61-7.9,1.02l.75,4.74c2.54-.65,5.1-1.23,7.67-1.74Z"/>
          <path class="cls-2" d="M249.57,224.02l-.7-5.46c-2.52,.25-5.04,.56-7.55,.94l.97,6.17c2.41-.61,4.83-1.16,7.28-1.66Z"/>
          <path class="cls-2" d="M144.88,219.72l8.1,9.91c2.88-2.62,5.85-5.13,8.88-7.55l-6.77-9.68c-3.48,2.32-6.87,4.78-10.21,7.31Z"/>
          <path class="cls-2" d="M183,223.89l-4.76-8.42c-3,1.69-5.94,3.48-8.84,5.34l5.84,8.85c2.53-2,5.11-3.93,7.76-5.77Z"/>
          <path class="cls-2" d="M235.33,181.55l.83,5.23c2.79-.61,5.6-1.16,8.43-1.64l-.6-4.69c-2.89,.3-5.78,.67-8.65,1.1Z"/>
          <path class="cls-2" d="M191.58,202.79l-3.56-8.06c-3.11,1.31-6.18,2.71-9.23,4.18l4.4,8.51c2.75-1.61,5.54-3.16,8.38-4.63Z"/>
          <path class="cls-2" d="M176.15,211.76l-5.06-8.95c-3.33,1.79-6.59,3.7-9.82,5.68l6.15,9.32c2.85-2.1,5.75-4.13,8.72-6.05Z"/>
          <path class="cls-2" d="M255.56,179.61l.22,4.02c2.52-.27,5.06-.49,7.6-.65l-.14-3.57c-2.56,.01-5.12,.09-7.69,.2Z"/>
          <path class="cls-2" d="M263.87,195.47l-.1-2.45c-2.49,0-4.98,.06-7.46,.17l.17,2.97c2.45-.29,4.92-.51,7.39-.69Z"/>
          <path class="cls-2" d="M140.13,223.39c-2.33,1.88-4.62,3.83-6.87,5.82-1.16,1.09-2.31,2.18-3.45,3.29l35.18,35.45c2.35-2.29,4.76-4.5,7.25-6.64l-32.12-37.93Z"/>
          <path class="cls-2" d="M264.9,221.72l-.15-3.82c-2.35-.04-4.7,0-7.05,.08l.26,4.59c2.31-.33,4.62-.62,6.95-.85Z"/>
          <path class="cls-2" d="M246.2,197.74l-.49-3.79c-2.76,.29-5.52,.65-8.26,1.07l.69,4.39c2.67-.63,5.35-1.18,8.05-1.67Z"/>
          <path class="cls-2" d="M264.36,207.97l-.1-2.5c-2.42-.01-4.84,.01-7.26,.11l.18,3.19c2.39-.32,4.78-.6,7.18-.8Z"/>
          <path class="cls-2" d="M226.43,189.2l-1.32-5.88c-2.87,.58-5.73,1.23-8.57,1.95l1.71,6.4c2.71-.89,5.43-1.71,8.18-2.47Z"/>
          <path class="cls-2" d="M232.07,214.36l-1.22-5.46c-2.51,.54-5.01,1.15-7.5,1.82l1.62,6.06c2.34-.87,4.71-1.67,7.1-2.42Z"/>
          <path class="cls-2" d="M235.06,227.7l-1.52-6.79c-2.35,.49-4.69,1.04-7.02,1.64l1.97,7.34c2.17-.78,4.36-1.51,6.58-2.19Z"/>
          <path class="cls-2" d="M184.66,226.84c-2.7,1.59-5.35,3.28-7.97,5.03l11.55,17.49c2.23-1.44,4.5-2.81,6.81-4.14l-10.39-18.38Z"/>
          <path class="cls-2" d="M197.06,215.2l-3.31-7.49c-2.83,1.24-5.61,2.57-8.36,3.95l4.12,7.96c2.47-1.55,4.99-3.02,7.55-4.42Z"/>
          <path class="cls-2" d="M203.85,230.56c-2.34,1.06-4.66,2.18-6.93,3.37l4.15,8.02c2.12-1.09,4.25-2.15,6.43-3.14l-3.64-8.24Z"/>
          <path class="cls-2" d="M126.52,235.81c-35.08,36.01-56.71,85.17-56.71,139.4h49.96c0-40.51,16.09-77.25,42.21-104.22l-35.45-35.18Z"/>
          <path class="cls-2" d="M163.66,224.66c-3.11,2.18-6.17,4.45-9.15,6.84l21.7,26.54c2.31-1.84,4.67-3.62,7.08-5.32l-19.63-28.06Z"/>
          <path class="cls-2" d="M206.08,196.11c.65-.27,1.32-.5,1.97-.76l-2.33-7.09c-2.84,.88-5.65,1.84-8.45,2.86l2.92,7.54c1.95-.88,3.9-1.75,5.89-2.56Z"/>
          <path class="cls-2" d="M202.43,227.34l-3.49-7.89c-2.57,1.17-5.1,2.4-7.6,3.7l4.32,8.34c2.21-1.45,4.47-2.83,6.77-4.16Z"/>
          <path class="cls-2" d="M212.17,207.86l-2.08-6.33c-.59,.19-1.19,.36-1.78,.55-2,.67-3.98,1.41-5.96,2.15l2.65,6.84c2.36-1.13,4.75-2.2,7.16-3.22Z"/>
          <path class="cls-2" d="M220.43,233.02l-2.6-7.91c-2.19,.72-4.36,1.47-6.51,2.3l3.21,8.29c1.94-.93,3.91-1.83,5.89-2.68Z"/>
          <path class="cls-2" d="M216.26,220.32l-2.24-6.82c-2.39,.8-4.75,1.65-7.09,2.56l2.83,7.31c2.13-1.07,4.31-2.08,6.5-3.05Z"/>
          <path class="cls-2" d="M229.25,201.76l-1.13-5.02c-2.68,.56-5.35,1.19-8.01,1.88l1.5,5.62c2.53-.89,5.07-1.72,7.63-2.48Z"/>
        </g>
        <path class="cls-3" d="M457.62,354.28c-19.7-4.49-36.72-8.37-36.72-19.09,0-14.62,19.29-16.81,30.78-16.81,12.25,0,24.74,2.72,37.13,8.08l.99,.43,32.07-32.06-3.53-2.3c-17.12-10.8-41.32-16.99-66.37-16.99-49.86,0-82.07,24.25-82.07,61.76,0,43.5,39.06,52.58,70.56,59.91,19.72,4.58,36.76,8.53,36.76,19.46,0,13.48-19.61,15.49-31.3,15.49-16.46,0-34.27-4.55-48.87-12.47l-1.04-.56-31.23,31.23,3.1,2.42c17.41,13.51,47.93,22.24,77.75,22.24,60.96,0,82.59-33.12,82.59-61.48,0-43.06-39.1-52.02-70.6-59.24Z"/>
      </g>
    </g>
  </g>
</svg>