<svg id="BG" xmlns="http://www.w3.org/2000/svg" viewBox="0 0 380.84 170.1"><path d="M331.53,6.65c-10.48,0-19.7,5.75-30.44,16.82V12.4h-8V42.33H243.92V29.05c0-13.95-6.09-19.44-22.92-19.44h-6.76v8h8.45c9.9,0,13.19,2.28,13.19,11.75V42.33h-30v8H352.25V29.48C352.25,14.85,344.13,6.65,331.53,6.65Zm12.68,35.68H301.09V33.87C312.25,20.6,321,14.34,330.18,14.34c9.55,0,14,6.76,14,16.32Z" style="fill:#5e1ad2"/><path d="M344.89,82.62v-8a3.06,3.06,0,1,0-1.62,0v8h-5.11v47.57H344l.13,0,.13,0h6V82.62Z" style="fill:blue"/><path d="M90.57,135.69a6.67,6.67,0,0,0-6.77,6.67,6.68,6.68,0,1,0,13.36,0A6.61,6.61,0,0,0,90.57,135.69Z" style="fill:blue"/><path d="M107.48,135.69a6.67,6.67,0,0,0-6.77,6.67,6.72,6.72,0,1,0,13.44,0A6.63,6.63,0,0,0,107.48,135.69Z" style="fill:blue"/><path d="M228.14,80.22a6.73,6.73,0,0,0,6.69-6.77,6.72,6.72,0,0,0-13.44,0A6.73,6.73,0,0,0,228.14,80.22Z" style="fill:blue"/><path d="M211.23,80.22a6.7,6.7,0,0,0,6.6-6.77,6.68,6.68,0,0,0-13.35,0A6.73,6.73,0,0,0,211.23,80.22Z" style="fill:blue"/><path d="M311.27,103.33h5.63v6.43h-5.63v5.47A28.57,28.57,0,0,1,301,117.47a19.36,19.36,0,0,0,.23-2.27.72.72,0,0,0,0-.34,21.64,21.64,0,0,0,.1-2.25v-.42a2.12,2.12,0,0,0,0-.43c0-.27,0-.57,0-.85a32.79,32.79,0,0,0-32.8-31.15,2.59,2.59,0,0,0-.51,0,32.57,32.57,0,0,0-32.31,32.31,2.91,2.91,0,0,0,0,.51,32.68,32.68,0,0,0,.37,4.88,25.81,25.81,0,0,1-10.55-2.26v-28h-12v28a25.24,25.24,0,0,1-11.48,2.29v6.16h-9.82v-6.16h-4.31v-10c0-15.65-9.13-23.75-21.55-23.75a29.47,29.47,0,0,0-16.2,5l2.31,4.09a45.07,45.07,0,0,0-8.46,5.73l-1.74-3.66c-1.46,1.35-3,2.83-4.51,4.43V90h-12v27.5h-9a26.81,26.81,0,0,1-11.83-2.29v-11.9H99.32V93.69a3.06,3.06,0,1,0-1.63,0v9.64H92.77v11.9a26.92,26.92,0,0,1-11.84,2.29H70.27v-7.76H65v-6.37c2.71,0,5.17,0,5.17-.06C70.66,93.16,67.45,87.24,53.71,87,51.1,86.83,38,86.55,38,86.55v12l16.4.37c2.31.13,3.58,2.14,3.57,4.41,0,0,2.64,0,5.46,0v6.38H58.26v7.76H42.18v5H36.44a3.06,3.06,0,1,0,0,1.63h5.74v6.09H81.63a34.69,34.69,0,0,0,17.14-4.73,34.69,34.69,0,0,0,17.14,4.73h76.21V125.3h9.82v4.89a34.9,34.9,0,0,0,17.49-4.74,34.69,34.69,0,0,0,17.14,4.73h1.31c1,0,1.88-.07,2.79-.16a32.8,32.8,0,0,0,27.23,15.41,3.63,3.63,0,0,0,.57,0,33.08,33.08,0,0,0,27.8-15.41c.83.07,1.68.12,2.56.13H300c9.84-.14,18.51-4.31,23.25-9.88V109.76h-4.75v-6.43h4.75V68.46h-12ZM175.72,117.52H137.66V113.7l1.19-1.37a95.75,95.75,0,0,1,7.79-8l-2-4.24a43.51,43.51,0,0,1,8.54-5.84l2.16,3.83a19.67,19.67,0,0,1,9.14-2.37c4.15,0,7.11,1.35,8.71,4a17.83,17.83,0,0,1,2.54,9.89Zm124.51-4.91a20.91,20.91,0,0,1-.1,2.22V115h0l0,.13a20.07,20.07,0,0,1-.25,2.36,32,32,0,0,1-31.39,26.92,4.54,4.54,0,0,1-.49,0,31.86,31.86,0,0,1-31.27-31.74,2.45,2.45,0,0,1,0-.42,31.53,31.53,0,0,1,31.31-31.32,2.23,2.23,0,0,1,.36,0h.06A31.7,31.7,0,0,1,300.18,111a7.85,7.85,0,0,1,0,.83l0,.11a2.44,2.44,0,0,1,0,.27Z" style="fill:blue"/><path d="M290,112.33a1.06,1.06,0,0,0,0-.25h0c0-.19,0-.38,0-.59a21.54,21.54,0,0,0-21.53-20.44,1.83,1.83,0,0,0-.33,0,21.52,21.52,0,0,0-21.22,21.26,1.32,1.32,0,0,0,0,.28,21.56,21.56,0,0,0,21.24,21.55,1.83,1.83,0,0,0,.33,0,21.6,21.6,0,0,0,21.32-18.28,14.58,14.58,0,0,0,.17-1.62.26.26,0,0,0,0-.15,15.18,15.18,0,0,0,.07-1.52v-.28h0Zm-12.1.1c0,5.83-3.71,10.16-9.72,10.16h-.08c-5.71-.06-9.47-4.35-9.47-10.16v-.1c0-5.74,3.79-10,9.47-10h.08c6,0,9.67,4.27,9.72,10Z" style="fill:blue"/><path d="M262.65,110.67a.38.38,0,0,0-.48.3,5.6,5.6,0,0,0-.13,1H15.61v-2h-.73v4.73h.73v-2H262a5.48,5.48,0,0,0,.13,1,.4.4,0,0,0,.39.32h.09a.41.41,0,0,0,.31-.49,5.38,5.38,0,0,1,0-2.35A.4.4,0,0,0,262.65,110.67Z" style="fill:#7f8fff"/><path d="M268.5,118.53a5.36,5.36,0,0,0,1-.11.4.4,0,0,0,.31-.48.41.41,0,0,0-.48-.32,5.26,5.26,0,0,1-2.43-.06.41.41,0,0,0-.49.3.39.39,0,0,0,.29.49,6.68,6.68,0,0,0,1.09.17v44.21h-2v.72h4.72v-.72h-2Z" style="fill:#7f8fff"/><path d="M265.78,12.76h2v93.38a5.6,5.6,0,0,0-1,.14.4.4,0,0,0-.3.49.39.39,0,0,0,.39.31h.1a5.48,5.48,0,0,1,2.35,0,.41.41,0,0,0,.48-.32.4.4,0,0,0-.31-.48,8.33,8.33,0,0,0-1-.11V12.76h2V12h-4.72Z" style="fill:#7f8fff"/><path d="M365.23,110v2h-90.8a5.36,5.36,0,0,0-.12-1,.41.41,0,0,0-.8.17,5.14,5.14,0,0,1,.13,1.18,5.06,5.06,0,0,1-.13,1.17.41.41,0,0,0,.31.49h.09a.42.42,0,0,0,.4-.32,5.36,5.36,0,0,0,.12-1h90.8v2H366V110Z" style="fill:#7f8fff"/></svg>